<svg width="24" height="24" viewBox="0 0 24 24" fill="none" xmlns="http://www.w3.org/2000/svg">
<path d="M16.9532 9.37312V7.44963V7.16211L16.6657 7.16308L14.7422 7.16991L14.7495 9.38043L16.9532 9.37312Z" fill="white"/>
<path d="M11.9403 14.4783C13.2064 14.4783 14.2371 13.4486 14.2371 12.1825C14.2371 11.683 14.0744 11.2201 13.8019 10.8433C13.3853 10.2654 12.7064 9.88574 11.9403 9.88574C11.1743 9.88574 10.4964 10.2654 10.0787 10.8433C9.80632 11.2201 9.64453 11.683 9.64453 12.1825C9.64453 13.4486 10.6743 14.4783 11.9403 14.4783Z" fill="white"/>
<path d="M12.0005 0C5.37281 0 0 5.37183 0 11.9995C0 18.6272 5.37281 24 12.0005 24C18.6272 24 24 18.6272 24 11.9995C24 5.37183 18.6267 0 12.0005 0ZM18.4639 10.8436V16.1852C18.4639 17.575 17.3324 18.7057 15.9425 18.7057H7.93811C6.54776 18.7057 5.41715 17.575 5.41715 16.1852V10.8436V8.1808C5.41715 6.79045 6.54776 5.65984 7.93811 5.65984H15.9425C17.3324 5.65984 18.4639 6.79045 18.4639 8.1808V10.8436Z" fill="white"/>
<path d="M15.5067 12.1829C15.5067 14.1493 13.9068 15.7502 11.9395 15.7502C9.9721 15.7502 8.37317 14.1493 8.37317 12.1829C8.37317 11.7088 8.46723 11.258 8.63487 10.8438H6.6875V16.1854C6.6875 16.8745 7.24793 17.4349 7.93701 17.4349H15.9414C16.6305 17.4349 17.1909 16.8745 17.1909 16.1854V10.8438H15.2426C15.4117 11.258 15.5067 11.7092 15.5067 12.1829Z" fill="white"/>
</svg>
