<svg width="24" height="24" viewBox="0 0 24 24" fill="none" xmlns="http://www.w3.org/2000/svg">
<path d="M12 0C18.6277 0 24 5.373 24 12C24 18.6271 18.6277 24 12 24C5.37217 24 0 18.627 0 12C0 5.37308 5.37225 0 12 0Z" fill="white"/>
<g clip-path="url(#clip0_5756_200)">
<path d="M5 19L6.204 15.3882C5.59307 14.3607 5.24138 13.1615 5.24138 11.8793C5.24138 8.08 8.32138 5 12.1207 5C15.92 5 19 8.08 19 11.8793C19 15.6786 15.92 18.7586 12.1207 18.7586C10.9647 18.7586 9.8761 18.4721 8.92 17.9686L5 19Z" fill="#2F6DB2"/>
<path d="M16.5115 14.1685C16.1939 13.5682 15.0225 12.8817 15.0225 12.8817C14.7574 12.7306 14.4376 12.7137 14.2865 12.9831C14.2865 12.9831 13.9058 13.4395 13.8091 13.5052C13.3668 13.8047 12.9572 13.7932 12.5437 13.3797L11.5828 12.4187L10.6219 11.4578C10.2084 11.0443 10.1968 10.6347 10.4964 10.1925C10.562 10.0957 11.0185 9.71506 11.0185 9.71506C11.2879 9.56371 11.271 9.24413 11.1199 8.97909C11.1199 8.97909 10.4334 7.80768 9.83306 7.49002C9.57768 7.35485 9.26413 7.40216 9.05992 7.60637L8.63557 8.03071C7.2894 9.37689 7.95223 10.8966 9.2984 12.2428L10.5287 13.4731L11.759 14.7034C13.1052 16.0496 14.6249 16.7124 15.9711 15.3662L16.3954 14.9419C16.5996 14.7372 16.6467 14.4236 16.5115 14.1685Z" fill="white"/>
</g>
<defs>
<clipPath id="clip0_5756_200">
<rect width="14" height="14" fill="white" transform="translate(5 5)"/>
</clipPath>
</defs>
</svg>
