<svg width="24" height="24" viewBox="0 0 24 24" fill="none" xmlns="http://www.w3.org/2000/svg">
<path fill-rule="evenodd" clip-rule="evenodd" d="M12 0C18.623 0 24 5.37703 24 12C24 18.623 18.623 24 12 24C5.37703 24 0 18.623 0 12C0 5.37703 5.37703 0 12 0Z" fill="white"/>
<path d="M18.6555 7.85843C18.1426 7.24871 17.1956 7 15.3871 7H8.82214C6.97221 7 6.00919 7.26475 5.4982 7.91389C5 8.5468 5 9.47935 5 10.77V13.23C5 15.7305 5.59111 17 8.82214 17H15.3871C16.9555 17 17.8245 16.7805 18.3868 16.2425C18.9634 15.6907 19.2094 14.7898 19.2094 13.23V10.77C19.2094 9.4089 19.1708 8.47085 18.6555 7.85843ZM14.1225 12.3396L11.1413 13.8977C11.0747 13.9325 11.0018 13.9498 10.929 13.9498C10.8466 13.9498 10.7644 13.9276 10.6915 13.8835C10.5544 13.8004 10.4707 13.6518 10.4707 13.4914V10.3854C10.4707 10.2253 10.5542 10.0768 10.691 9.99364C10.8279 9.91049 10.9982 9.90481 11.1403 9.9786L14.1214 11.5266C14.2731 11.6053 14.3683 11.7619 14.3686 11.9328C14.3687 12.1037 14.2739 12.2605 14.1225 12.3396Z" fill="#2F6DB2"/>
</svg>
