<svg width="73" height="73" viewBox="0 0 73 73" fill="none" xmlns="http://www.w3.org/2000/svg">
<g opacity="0.05">
<path d="M70.7669 34.1899H66.4546C65.2996 19.5591 53.5949 7.93143 39.0411 6.77637V2.38713C39.0411 1.07806 37.9631 0 36.654 0C35.3449 0 34.2669 1.07806 34.2669 2.38713V6.69937C19.6361 7.85443 8.00844 19.5591 6.85337 34.1129H2.38713C1.07806 34.1129 0 35.1909 0 36.5C0 37.8091 1.07806 38.8871 2.38713 38.8871H6.69937C7.85443 53.5179 19.5591 65.1456 34.1129 66.3006V70.6129C34.1129 71.9219 35.1909 73 36.5 73C37.8091 73 38.8871 71.9219 38.8871 70.6129V66.3006C53.5179 65.1456 65.1456 53.4409 66.3006 38.8871H70.6129C71.9219 38.8871 73 37.8091 73 36.5C73 35.1909 72.076 34.1899 70.7669 34.1899ZM61.6034 34.1899H55.8281C54.75 25.3344 47.7426 18.404 38.8871 17.2489V11.4736C50.9768 12.7057 60.4483 22.1772 61.6034 34.1899ZM36.577 49.3597C29.5696 49.3597 23.7943 43.6614 23.7943 36.577C23.7943 29.4926 29.5696 23.7943 36.577 23.7943C43.5844 23.7943 49.3597 29.4926 49.3597 36.577C49.3597 43.6614 43.5844 49.3597 36.577 49.3597ZM34.1899 11.5506V17.3259C25.3344 18.404 18.404 25.4114 17.2489 34.2669H11.4736C12.7057 22.1772 22.1772 12.7057 34.1899 11.5506ZM11.5506 38.9641H17.3259C18.404 47.8196 25.4114 54.75 34.2669 55.9051V61.6804C22.1772 60.4483 12.7057 50.9768 11.5506 38.9641ZM38.9641 61.6034V55.8281C47.8196 54.75 54.75 47.7426 55.9051 38.8871H61.6804C60.4483 50.9768 50.9768 60.4483 38.9641 61.6034Z" fill="#2F6DB2"/>
<path d="M36.5773 41.1975C39.129 41.1975 41.1975 39.129 41.1975 36.5773C41.1975 34.0256 39.129 31.957 36.5773 31.957C34.0256 31.957 31.957 34.0256 31.957 36.5773C31.957 39.129 34.0256 41.1975 36.5773 41.1975Z" fill="#2F6DB2"/>
</g>
</svg>
