<svg width="106" height="52" viewBox="0 0 106 52" fill="none" xmlns="http://www.w3.org/2000/svg">
<g opacity="0.05">
<path d="M42.3528 27.1307C42.3528 28.0833 42.2823 29.0241 42.1647 29.9649C42.2117 29.6474 42.247 29.3416 42.294 29.0241C42.0353 30.894 41.5414 32.7051 40.8122 34.4456C40.9298 34.1634 41.0474 33.8811 41.165 33.5989C40.5535 35.0219 39.8008 36.3861 38.8953 37.6444C38.7894 37.7856 38.6954 37.9267 38.5895 38.0561C38.2485 38.5147 39.0364 37.4916 38.7777 37.8209C38.5778 38.0678 38.3778 38.3148 38.1779 38.55C37.7663 39.0204 37.3312 39.4791 36.8725 39.9142C36.4138 40.3493 35.9434 40.7609 35.4495 41.1608C35.0026 41.5254 36.0258 40.7257 35.6847 40.9844C35.5671 41.0667 35.4495 41.1608 35.3436 41.2431C35.0614 41.443 34.7792 41.643 34.4969 41.8311C33.4267 42.525 32.3095 43.1248 31.1334 43.6187C31.4157 43.5011 31.6979 43.3835 31.9802 43.2659C30.2867 43.9715 28.5226 44.4537 26.6998 44.7124C27.0173 44.6654 27.3231 44.6301 27.6406 44.5831C25.7472 44.83 23.842 44.8418 21.9486 44.6066C22.2661 44.6536 22.5719 44.6889 22.8894 44.7359C20.996 44.4772 19.1496 43.9833 17.3973 43.2424C17.6796 43.36 17.9618 43.4776 18.2441 43.5952C17.0092 43.066 15.8214 42.4192 14.7042 41.6665C14.4455 41.4901 14.1985 41.3137 13.9515 41.1373C13.3165 40.6669 14.3279 41.443 14.1162 41.2666C13.9751 41.149 13.8339 41.0432 13.6928 40.9256C13.1989 40.514 12.7285 40.0788 12.2698 39.6319C11.8111 39.1733 11.3878 38.7029 10.9762 38.2089C10.8821 38.0913 10.7762 37.9737 10.6822 37.8561C10.2941 37.3857 11.2466 38.6323 10.8115 38.0208C10.6116 37.7503 10.4234 37.4798 10.2353 37.1976C9.48259 36.0803 8.83577 34.8925 8.30656 33.6577C8.42416 33.9399 8.54176 34.2222 8.65937 34.5044C7.91846 32.7404 7.41277 30.9058 7.1658 29.0123C7.21284 29.3299 7.24812 29.6356 7.29516 29.9532C7.05996 28.1068 7.05996 26.2369 7.29516 24.3905C7.24812 24.708 7.21284 25.0138 7.1658 25.3313C7.42453 23.4379 7.91846 21.5915 8.65937 19.8392C8.54176 20.1215 8.42416 20.4037 8.30656 20.686C8.83577 19.4512 9.48259 18.2634 10.2353 17.1461C10.4117 16.8874 10.5881 16.6404 10.7645 16.3935C11.2349 15.7584 10.4587 16.7698 10.6351 16.5581C10.7527 16.417 10.8586 16.2759 10.9762 16.1347C11.3878 15.6408 11.8229 15.1704 12.2698 14.7117C12.7285 14.2531 13.1989 13.8297 13.6928 13.4181C13.8104 13.324 13.928 13.2182 14.0456 13.1241C14.516 12.736 13.2694 13.6886 13.881 13.2534C14.1515 13.0535 14.4219 12.8653 14.7042 12.6772C15.8214 11.9245 17.0092 11.2777 18.2441 10.7485C17.9618 10.8661 17.6796 10.9837 17.3973 11.1013C19.1614 10.3604 20.996 9.85469 22.8894 9.60772C22.5719 9.65476 22.2661 9.69004 21.9486 9.73709C23.8302 9.50188 25.7237 9.50188 27.6053 9.74885C27.2878 9.70181 26.982 9.66652 26.6645 9.61948C28.5109 9.87821 30.3102 10.3721 32.039 11.0895C31.7567 10.9719 31.4745 10.8543 31.1922 10.7367C32.5212 11.313 33.803 12.0068 34.9908 12.8301C35.1084 12.9124 35.226 12.9947 35.3436 13.077C35.4613 13.1594 35.9787 13.5592 35.4613 13.1594C34.9673 12.7713 35.3907 13.1123 35.5083 13.1946C35.6377 13.3005 35.767 13.4063 35.8964 13.5239C36.3903 13.9473 36.8725 14.3942 37.3312 14.8528C37.7663 15.2997 38.1897 15.7584 38.5778 16.2406C38.6718 16.3464 39.0717 16.8756 38.6718 16.3464C38.2837 15.8525 38.6248 16.2759 38.7071 16.3935C38.907 16.6639 39.107 16.9462 39.2951 17.2284C40.0243 18.3222 40.6476 19.4864 41.165 20.6978C41.0474 20.4155 40.9298 20.1333 40.8122 19.851C41.5414 21.5798 42.0353 23.3791 42.294 25.2373C42.247 24.9197 42.2117 24.614 42.1647 24.2964C42.2823 25.2137 42.3528 26.1663 42.3528 27.1307C42.3646 28.9771 43.9758 30.7411 45.8809 30.6588C47.7861 30.5765 49.4208 29.1064 49.4091 27.1307C49.3855 22.0502 47.8214 16.8874 44.7872 12.7713C41.5061 8.32584 36.9901 4.99766 31.6627 3.42177C26.7351 1.96348 21.1842 2.08109 16.3624 3.88042C11.9287 5.53864 8.08311 8.29056 5.1783 12.0421C2.21468 15.8878 0.50943 20.4037 0.0860562 25.2373C-0.325557 29.9296 0.756398 34.7279 2.96735 38.8675C7.41277 47.1821 16.7505 52.4272 26.1706 51.7686C31.6156 51.3923 36.6491 49.3343 40.824 45.8179C45.0342 42.2663 48.0566 37.0564 48.9739 31.6231C49.2209 30.1296 49.3973 28.6242 49.3973 27.1189C49.409 25.2725 47.7626 23.5085 45.8692 23.5908C43.964 23.6966 42.3646 25.1549 42.3528 27.1307Z" fill="#2F6DB2"/>
<path d="M98.9437 27.1308C98.9437 28.0599 98.8849 28.989 98.7673 29.9063C98.8143 29.5888 98.8496 29.283 98.8967 28.9655C98.6379 30.8589 98.144 32.7053 97.4031 34.4576C97.5207 34.1753 97.6383 33.8931 97.7559 33.6108C97.2267 34.8457 96.5799 36.0335 95.8272 37.1507C95.6508 37.4094 95.4744 37.6564 95.298 37.9034C94.8276 38.5384 95.6038 37.527 95.4273 37.7387C95.3097 37.8798 95.2039 38.021 95.0863 38.1621C94.6747 38.656 94.2396 39.1264 93.7927 39.5851C93.334 40.0437 92.8636 40.4671 92.3697 40.8787C92.252 40.9728 92.1344 41.0787 92.0168 41.1727C91.5464 41.5608 92.793 40.6082 92.1815 41.0434C91.911 41.2433 91.6405 41.4315 91.3583 41.6196C90.241 42.3723 89.0532 43.0191 87.8184 43.5483C88.1006 43.4307 88.3829 43.3131 88.6651 43.1955C86.9011 43.9364 85.0665 44.4421 83.173 44.6891C83.4906 44.642 83.7963 44.6068 84.1139 44.5597C82.2205 44.7949 80.3153 44.7949 78.4218 44.5362C78.7394 44.5832 79.0451 44.6185 79.3627 44.6656C77.5516 44.4068 75.7758 43.9247 74.0823 43.219C74.3645 43.3366 74.6468 43.4542 74.929 43.5718C73.753 43.0779 72.6357 42.4781 71.5656 41.7843C71.3068 41.6079 71.0363 41.4315 70.7894 41.2433C70.6718 41.161 70.5542 41.0787 70.4366 40.9846C69.8956 40.5965 71.1187 41.5373 70.6012 41.1139C70.119 40.7141 69.6369 40.3025 69.1782 39.8673C68.7195 39.4322 68.2844 38.9735 67.8728 38.5031C67.6846 38.2914 67.5082 38.068 67.3201 37.8446C66.8967 37.3271 67.8493 38.5502 67.4494 38.021C67.3436 37.8798 67.2495 37.7387 67.1437 37.6093C66.2381 36.351 65.4854 34.9868 64.8739 33.5638C64.9915 33.846 65.1091 34.1283 65.2267 34.4105C64.5093 32.6818 64.0036 30.8706 63.7449 29.0125C63.7919 29.33 63.8272 29.6358 63.8743 29.9533C63.6273 28.0482 63.6273 26.1195 63.8743 24.2143C63.8272 24.5318 63.7919 24.8376 63.7449 25.1551C64.0036 23.297 64.4976 21.4976 65.2267 19.7689C65.1091 20.0511 64.9915 20.3334 64.8739 20.6156C65.3914 19.4043 66.0147 18.24 66.7438 17.1463C66.9202 16.8876 67.0966 16.6288 67.2848 16.3819C67.3671 16.2643 67.4612 16.1584 67.5435 16.0408C66.9084 16.9346 67.2495 16.4289 67.4141 16.2172C67.8258 15.7115 68.2609 15.2294 68.7195 14.7589C69.1547 14.312 69.6133 13.8887 70.0837 13.4888C70.319 13.2889 70.5659 13.1007 70.8129 12.9008C69.8721 13.677 70.8011 12.9243 71.0599 12.7479C72.2477 11.9247 73.5295 11.2308 74.8585 10.6546C74.5762 10.7722 74.294 10.8898 74.0117 11.0074C75.7405 10.29 77.5281 9.79607 79.3862 9.53734C79.0687 9.58438 78.7629 9.61966 78.4454 9.6667C80.327 9.41973 82.2205 9.41973 84.1021 9.65494C83.7846 9.6079 83.4788 9.57262 83.1613 9.52558C85.0547 9.7843 86.9011 10.2782 88.6534 11.0191C88.3711 10.9015 88.0889 10.7839 87.8066 10.6663C89.0415 11.1955 90.2293 11.8424 91.3465 12.595C91.6052 12.7714 91.8522 12.9478 92.0992 13.1243C92.7342 13.5947 91.7228 12.8185 91.9345 12.9949C92.0756 13.1125 92.2168 13.2183 92.3579 13.3359C92.8518 13.7475 93.3222 14.1827 93.7809 14.6296C94.2396 15.0882 94.6629 15.5586 95.0745 16.0526C95.1686 16.1702 95.2745 16.2878 95.3685 16.4054C95.7566 16.8758 94.804 15.6292 95.2392 16.2407C95.4391 16.5112 95.6273 16.7817 95.8154 17.064C96.5681 18.1812 97.2149 19.369 97.7441 20.6038C97.6265 20.3216 97.5089 20.0393 97.3913 19.7571C98.1322 21.5212 98.6379 23.3558 98.8849 25.2492C98.8379 24.9317 98.8026 24.6259 98.7555 24.3084C98.8849 25.2845 98.9437 26.2018 98.9437 27.1308C98.9555 28.9772 100.567 30.7413 102.472 30.659C104.377 30.5766 106.012 29.1066 106 27.1308C105.965 17.7931 100.484 8.78467 91.9345 4.84495C87.054 2.59872 81.7853 1.92837 76.4932 2.91625C71.2951 3.8806 66.3204 6.75013 62.8394 10.7369C59.2642 14.8295 57.1709 19.8159 56.6887 25.2257C56.1947 30.8118 57.7942 36.7273 61.0753 41.2786C64.2036 45.6182 68.4843 48.864 73.5648 50.581C78.2807 52.1804 83.6199 52.2275 88.3711 50.7927C97.2267 48.1114 104.342 40.326 105.659 31.0823C105.847 29.7652 105.988 28.4598 106 27.1191C106.012 25.2727 104.377 23.5087 102.472 23.591C100.555 23.6968 98.9555 25.1551 98.9437 27.1308Z" fill="#2F6DB2"/>
<path d="M56.6063 27.131C56.6181 30.1887 57.1708 33.2817 58.3233 36.1277C59.7699 34.6812 61.2164 33.2346 62.6629 31.7881C56.4417 29.8947 49.5854 29.8947 43.3641 31.7881C44.8107 33.2346 46.2572 34.6812 47.7037 36.1277C49.5031 31.694 49.8088 26.7547 48.8915 22.0858C48.0565 17.8403 45.9632 13.9123 43.1289 10.6782C41.5648 8.90242 39.6949 7.37357 37.6956 6.11521C37.4134 8.26736 37.1311 10.4195 36.8489 12.5599C39.8831 11.3839 42.9055 10.2078 45.9397 9.04354C47.5744 8.40848 49.2678 7.96159 51.0084 7.71462C50.6909 7.76166 50.3851 7.79694 50.0676 7.84398C52.0198 7.58526 53.9955 7.58526 55.9477 7.84398C55.6302 7.79694 55.3244 7.76166 55.0069 7.71462C57.3355 8.04391 59.4759 8.80834 61.6515 9.64332C63.6273 10.4077 65.603 11.1722 67.5788 11.9366C68.108 12.1365 68.6372 12.3482 69.1664 12.5481C68.8842 10.396 68.6019 8.24384 68.3197 6.10345C61.1105 10.6547 56.6416 18.593 56.6063 27.131C56.5946 28.9774 58.2292 30.7414 60.1344 30.6591C62.0514 30.5768 63.6508 29.1067 63.6625 27.131C63.6625 26.1666 63.7331 25.2023 63.8625 24.2497C63.8154 24.5672 63.7801 24.873 63.7331 25.1905C63.9918 23.3324 64.4858 21.5331 65.2149 19.8043C65.0973 20.0865 64.9797 20.3688 64.8621 20.651C65.2855 19.6749 65.7677 18.7341 66.3204 17.8285C66.5909 17.3934 66.8731 16.97 67.1671 16.5467C67.2495 16.4291 67.3318 16.3232 67.4141 16.2056C67.6964 15.8293 67.2259 16.4761 67.1789 16.5114C67.3788 16.3585 67.5552 16.0527 67.7199 15.8528C68.3784 15.0766 69.1076 14.3475 69.872 13.6771C70.0837 13.489 70.3072 13.3126 70.5188 13.1244C70.6012 13.0538 70.707 12.995 70.7893 12.9127C70.6717 13.0303 70.0837 13.4419 70.5541 13.1009C70.9893 12.7833 71.4361 12.4776 71.8948 12.1953C73.1061 11.4309 73.7765 10.102 73.5765 8.67897C73.3766 7.19716 72.4005 6.2681 71.0481 5.75064C67.8022 4.49228 64.5798 3.16336 61.3105 1.98732C56.5946 0.293826 51.2671 0.152701 46.4336 1.44634C44.4461 1.97556 42.5292 2.82231 40.6122 3.56321C38.7306 4.29235 36.8489 5.0215 34.9672 5.75064C33.6266 6.2681 32.6387 7.1854 32.4388 8.67897C32.2506 10.102 32.9092 11.4309 34.1205 12.1953C34.5556 12.4658 34.979 12.7481 35.3906 13.0538C35.4847 13.1244 35.9551 13.489 35.4377 13.0891C34.9202 12.6893 35.4024 13.0538 35.4847 13.1244C35.6846 13.289 35.8845 13.4537 36.0727 13.6183C36.8607 14.3004 37.6016 15.0531 38.2837 15.841C38.4483 16.0292 38.613 16.2409 38.7658 16.4291C39.0363 16.7466 38.2837 15.7822 38.5306 16.1233C38.613 16.2409 38.707 16.3467 38.7894 16.4643C39.0951 16.876 39.3774 17.2993 39.6479 17.7345C40.2241 18.6635 40.7181 19.6279 41.1532 20.6275C41.0356 20.3453 40.918 20.063 40.8004 19.7808C41.5295 21.5095 42.0235 23.3089 42.2822 25.167C42.2351 24.8495 42.1999 24.5437 42.1528 24.2262C42.3998 26.1314 42.3998 28.0365 42.1646 29.9417C42.2116 29.6242 42.2469 29.3184 42.2939 29.0009C42.047 30.8002 41.5766 32.5408 40.8945 34.2225C40.4358 35.3515 40.9886 36.8451 41.8 37.6565C42.6703 38.5268 44.0345 38.9266 45.234 38.5621C46.7747 38.0917 48.3388 37.7624 49.9264 37.5389C49.6089 37.586 49.3031 37.6212 48.9856 37.6683C51.6552 37.3155 54.3483 37.3155 57.0179 37.6683C56.7004 37.6212 56.3946 37.586 56.0771 37.5389C57.6648 37.7624 59.2406 38.0917 60.7695 38.5621C61.9691 38.9266 63.3333 38.5268 64.2035 37.6565C65.015 36.8451 65.5677 35.3515 65.1091 34.2225C64.427 32.5525 63.9683 30.812 63.7096 29.0244C63.7566 29.3419 63.7919 29.6477 63.8389 29.9652C63.7213 29.0127 63.6508 28.0601 63.6508 27.1075C63.639 25.2611 62.0396 23.497 60.1227 23.5794C58.2293 23.697 56.5946 25.1553 56.6063 27.131Z" fill="#2F6DB2"/>
<path d="M49.809 14.3476C49.809 14.3594 49.809 14.3711 49.809 14.3829C49.856 14.0653 49.8913 13.7596 49.9383 13.442C49.9383 13.4773 49.9266 13.5126 49.9148 13.5361C50.0324 13.2539 50.15 12.9716 50.2676 12.6894C50.2559 12.7129 50.2441 12.7247 50.2323 12.7482C50.4205 12.513 50.5969 12.2778 50.7851 12.0308C50.7616 12.0543 50.738 12.0778 50.7145 12.1014C50.9497 11.9132 51.1849 11.7368 51.4319 11.5486C51.4084 11.5604 51.3966 11.5721 51.3731 11.5839C51.6553 11.4663 51.9376 11.3487 52.2198 11.2311C52.1846 11.2429 52.161 11.2546 52.1258 11.2546C52.4433 11.2076 52.7491 11.1723 53.0666 11.1253C53.0431 11.1253 53.0195 11.1253 52.996 11.1253C53.3136 11.1723 53.6193 11.2076 53.9369 11.2546C53.9016 11.2546 53.8663 11.2429 53.8428 11.2311C54.125 11.3487 54.4073 11.4663 54.6895 11.5839C54.666 11.5721 54.6542 11.5604 54.6307 11.5486C54.8659 11.7368 55.1011 11.9132 55.3481 12.1014C55.3246 12.0778 55.3011 12.0543 55.2775 12.0308C55.4657 12.266 55.6421 12.5012 55.8303 12.7482C55.8185 12.7247 55.8068 12.7129 55.795 12.6894C55.9126 12.9716 56.0302 13.2539 56.1478 13.5361C56.136 13.5008 56.1243 13.4773 56.1243 13.442C56.1713 13.7596 56.2066 14.0653 56.2536 14.3829C56.2536 14.3594 56.2536 14.3358 56.2536 14.3123C56.2066 14.6298 56.1713 14.9356 56.1243 15.2531C56.1243 15.2179 56.136 15.1826 56.1478 15.1591C56.0302 15.4413 55.9126 15.7236 55.795 16.0058C55.8068 15.9823 55.8185 15.9705 55.8303 15.947C55.6421 16.1822 55.4657 16.4174 55.2775 16.6644C55.3011 16.6409 55.3246 16.6173 55.3481 16.5938C55.1129 16.782 54.8777 16.9584 54.6307 17.1466C54.6542 17.1348 54.666 17.123 54.6895 17.1113C54.4073 17.2289 54.125 17.3465 53.8428 17.4641C53.878 17.4523 53.9016 17.4406 53.9369 17.4406C53.6193 17.4876 53.3136 17.5229 52.996 17.5699C53.0195 17.5699 53.0431 17.5699 53.0666 17.5699C52.7491 17.5229 52.4433 17.4876 52.1258 17.4406C52.161 17.4406 52.1963 17.4523 52.2198 17.4641C51.9376 17.3465 51.6553 17.2289 51.3731 17.1113C51.3966 17.123 51.4084 17.1348 51.4319 17.1466C51.1967 16.9584 50.9615 16.782 50.7145 16.5938C50.738 16.6173 50.7616 16.6409 50.7851 16.6644C50.5969 16.4292 50.4205 16.194 50.2323 15.947C50.2441 15.9705 50.2559 15.9823 50.2676 16.0058C50.15 15.7236 50.0324 15.4413 49.9148 15.1591C49.9266 15.1943 49.9383 15.2179 49.9383 15.2531C49.8913 14.9356 49.856 14.6298 49.809 14.3123C49.809 14.3241 49.809 14.3358 49.809 14.3476C49.7854 14.8298 49.8913 15.2884 50.1147 15.7118C50.2559 16.1469 50.5028 16.5233 50.8439 16.8526C51.1614 17.1936 51.5377 17.4406 51.9846 17.5817C52.408 17.8051 52.8549 17.8992 53.3488 17.8875C53.6664 17.8404 53.9721 17.8051 54.2897 17.7581C54.8894 17.5935 55.4069 17.2877 55.842 16.8526C56.0302 16.6173 56.2066 16.3821 56.3948 16.1352C56.7123 15.5824 56.8769 14.9944 56.8769 14.3594C56.8652 14.1947 56.8417 14.0183 56.8064 13.8537C56.7829 13.689 56.7711 13.5126 56.7358 13.348C56.6888 13.1833 56.5947 13.0187 56.5359 12.8658C56.4418 12.6306 56.4183 12.5483 56.3242 12.3836C56.136 12.1484 55.9596 11.9132 55.7715 11.6662C55.7597 11.6545 55.748 11.6427 55.7362 11.6309C55.7244 11.6192 55.7127 11.6074 55.7009 11.5957C55.4657 11.4075 55.2305 11.2311 54.9835 11.0429C54.6895 10.8665 54.5366 10.796 54.078 10.6548C53.7369 10.549 53.3606 10.502 53.0078 10.502C52.655 10.502 52.2786 10.549 51.9376 10.6548C51.4789 10.8077 51.3261 10.8783 51.032 11.0429C50.7968 11.2311 50.5616 11.4075 50.3147 11.5957C50.3029 11.6074 50.2911 11.6192 50.2794 11.6309C50.2676 11.6427 50.2559 11.6545 50.2441 11.6662C50.0559 11.9014 49.8795 12.1366 49.6914 12.3836C49.5973 12.5365 49.562 12.6541 49.4797 12.8658C49.4209 13.0187 49.3268 13.1833 49.2797 13.348C49.2562 13.5126 49.2327 13.6773 49.2092 13.8537C49.1739 14.0183 49.1504 14.183 49.1386 14.3594C49.1033 15.3355 49.562 16.4057 50.2559 17.076C50.4793 17.2877 50.9732 17.6405 51.0203 17.6758C51.1732 17.7699 51.2908 17.7934 51.5025 17.8875C51.6553 17.9463 51.82 18.0404 51.9846 18.0874C52.1493 18.1109 52.3139 18.1344 52.4903 18.158C52.655 18.1932 52.8079 18.2168 52.9725 18.2168C52.996 18.2168 53.0078 18.2168 53.0313 18.2168C53.3488 18.1697 53.6546 18.1344 53.9721 18.0874C54.0074 18.0756 54.0309 18.0756 54.0662 18.0639C54.3485 17.9463 54.6307 17.8287 54.913 17.7111C54.9247 17.6993 54.9482 17.6993 54.96 17.6875C55.2305 17.5347 55.4892 17.3347 55.7127 17.1113C55.9479 16.8643 56.1713 16.5821 56.3477 16.2881C56.7123 15.6648 56.8181 15.0885 56.8534 14.3711C56.8769 13.8889 56.7711 13.4303 56.5477 13.0069C56.4065 12.5718 56.1596 12.1954 55.8185 11.8662C55.501 11.5251 55.1247 11.2781 54.6778 11.137C54.2544 10.9136 53.8075 10.8195 53.3135 10.8312C52.996 10.8783 52.6903 10.9136 52.3727 10.9606C51.7729 11.1253 51.2555 11.431 50.8204 11.8662C50.6322 12.1014 50.4558 12.3366 50.2676 12.5835C49.9736 13.1128 49.809 13.7125 49.809 14.3476Z" fill="#2F6DB2"/>
</g>
</svg>
