<svg width="38" height="36" viewBox="0 0 38 36" fill="none" xmlns="http://www.w3.org/2000/svg">
<path d="M0.963928 8.05163H5.78357V4.93304C5.78357 4.42273 6.18048 3.96912 6.69079 3.96912H9.29907V0.963928C9.29907 0.453613 9.75268 0 10.263 0H36.8561C37.3664 0 37.82 0.453613 37.82 0.963928V32.4333C37.82 32.9437 37.3664 33.3973 36.8561 33.3973H31.9797V33.6808C31.9797 34.2478 31.5828 34.6447 31.0158 34.6447H23.2477C23.1343 35.0416 22.7941 35.2684 22.3405 35.2684H0.963928C0.396912 35.2684 0 34.8715 0 34.3045V9.01556C0 8.50525 0.396912 8.05163 0.963928 8.05163ZM7.65472 8.05163H22.3405C22.9075 8.05163 23.3044 8.50525 23.3044 9.01556V32.7169H30.0519V5.89697H7.65472V8.05163ZM21.3765 9.97949H1.92786V33.3973H21.3765V9.97949ZM5.89697 11.8506H17.4074C17.9744 11.8506 18.3713 12.3043 18.3713 12.8146V17.6342C18.3713 18.1445 17.9744 18.5414 17.4074 18.5414H5.89697C5.32996 18.5414 4.93304 18.1445 4.93304 17.6342V12.8146C4.93304 12.3043 5.32996 11.8506 5.89697 11.8506ZM16.4435 13.7785H6.8609V16.6703H16.4435V13.7785ZM5.72687 21.7734C5.21655 21.7734 4.81964 21.3765 4.81964 20.8095C4.81964 20.2992 5.21655 19.8456 5.72687 19.8456H17.5208C18.0878 19.8456 18.4847 20.2992 18.4847 20.8095C18.4847 21.3765 18.0878 21.7734 17.5208 21.7734H5.72687ZM5.72687 25.459C5.21655 25.459 4.81964 25.0054 4.81964 24.4951C4.81964 23.9281 5.21655 23.5312 5.72687 23.5312H17.5208C18.0878 23.5312 18.4847 23.9281 18.4847 24.4951C18.4847 25.0054 18.0878 25.459 17.5208 25.459H5.72687ZM11.2269 3.96912H31.0158C31.5828 3.96912 31.9797 4.42273 31.9797 4.93304V31.4694H35.8921V1.92786H11.2269V3.96912Z" fill="white"/>
</svg>
