<svg width="23" height="35" viewBox="0 0 23 35" fill="none" xmlns="http://www.w3.org/2000/svg">
<path d="M20.1038 17.8212C19.9405 18.6385 19.4798 19.366 18.8107 19.8629C18.6567 19.9754 18.4903 20.07 18.3149 20.1449C19.3378 21.3917 19.8947 22.9557 19.8899 24.5685V32.1421H3.48848V24.5685C3.49049 22.9586 4.04279 21.3977 5.05376 20.1449C4.88217 20.0684 4.71921 19.9739 4.56765 19.8629C3.88865 19.371 3.4255 18.6363 3.27459 17.8115C1.56491 19.6637 0.623081 22.0965 0.639869 24.6171V33.6199C0.650001 33.9896 0.804011 34.3407 1.06912 34.5985C1.33423 34.8564 1.6895 35.0006 2.05932 35.0004H21.3093C21.4966 35.0004 21.6819 34.9634 21.8548 34.8915C22.0276 34.8195 22.1845 34.7141 22.3165 34.5813C22.4484 34.4484 22.5528 34.2908 22.6235 34.1174C22.6943 33.9441 22.7301 33.7585 22.7288 33.5713V24.5685C22.7354 22.069 21.7978 19.6591 20.1038 17.8212Z" fill="white"/>
<path d="M5.26775 10.9863L6.14275 11.8515L5.85108 13.3488L5.39413 16.0029L5.22886 16.9752C5.19119 17.2038 5.21758 17.4383 5.3051 17.6528C5.39263 17.8673 5.53786 18.0534 5.72469 18.1904C5.91196 18.3253 6.13329 18.405 6.36357 18.4205C6.59384 18.4359 6.82384 18.3866 7.02747 18.2779L7.40664 18.0835L7.84414 17.8502L11.6844 15.8765L15.5733 17.9085L15.8844 18.0738L16.3414 18.3071C16.516 18.4064 16.7141 18.4567 16.915 18.4529C17.0952 18.4528 17.2731 18.4133 17.4364 18.3371C17.5997 18.2608 17.7443 18.1498 17.8601 18.0118C17.9759 17.8737 18.0601 17.712 18.1068 17.538C18.1535 17.3639 18.1615 17.1818 18.1303 17.0043L17.965 16.0321L17.5178 13.2904L17.2747 11.8515L18.1011 11.0349L21.0178 8.19598C21.1878 8.03658 21.3088 7.832 21.3666 7.60623C21.4244 7.38047 21.4166 7.1429 21.3442 6.9214C21.2717 6.69991 21.1375 6.50368 20.9575 6.35575C20.7774 6.20783 20.5588 6.11434 20.3275 6.08626L15.4664 5.36681H15.165L15.058 5.1432L12.8025 0.641809C12.6959 0.440002 12.5343 0.272573 12.3364 0.158985C12.1385 0.0453969 11.9124 -0.009685 11.6844 0.00014208C11.457 -0.0062723 11.2323 0.0502535 11.035 0.163482C10.8377 0.276711 10.6755 0.442242 10.5664 0.641809L8.38858 5.07515L8.26219 5.32792H7.90247L3.04135 6.03765C2.81867 6.07565 2.61054 6.17354 2.43926 6.32084C2.26799 6.46814 2.14004 6.65927 2.06913 6.87376C1.99619 7.09461 1.98762 7.33166 2.04444 7.5572C2.10125 7.78273 2.2211 7.98744 2.38997 8.14737L5.26775 10.9863ZM9.26358 7.69043C9.4682 7.66285 9.66324 7.58667 9.83238 7.46827C10.0015 7.34987 10.1399 7.19269 10.2358 7.00987L11.6358 4.16126L11.6844 3.97653L11.7719 4.17098L13.1816 7.00987C13.2756 7.19423 13.4134 7.35269 13.5829 7.47135C13.7524 7.59001 13.9485 7.66524 14.1539 7.69043L17.4983 8.17654L15.2622 10.364L15.0775 10.5293C14.9201 10.6696 14.801 10.8476 14.7313 11.0466C14.6615 11.2456 14.6435 11.459 14.6789 11.6668L14.7955 12.3279L15.2525 14.9918L13.133 13.8738L12.258 13.4168C12.0812 13.3231 11.8845 13.2731 11.6844 13.271C11.4845 13.2742 11.288 13.3242 11.1108 13.4168L10.2164 13.8835L8.11636 14.9918L8.5733 12.3863L8.69969 11.6668C8.72941 11.4675 8.71141 11.264 8.64719 11.0731C8.58296 10.8821 8.47434 10.709 8.33025 10.5682L8.10664 10.3543L5.91914 8.21543L9.26358 7.69043Z" fill="white"/>
</svg>
