<svg width="57" height="12" viewBox="0 0 57 12" fill="none" xmlns="http://www.w3.org/2000/svg">
<path d="M28.4707 8.87615C28.4707 8.6131 28.4707 8.3652 28.479 8.13245C28.4827 7.90865 28.4693 7.68489 28.439 7.46313C28.4092 7.24504 28.3475 7.03251 28.2558 6.83236C28.1483 6.60189 28.0062 6.38919 27.8344 6.2016C27.7229 6.08316 27.6058 5.97298 27.4874 5.86556C27.3689 5.75814 27.2381 5.66311 27.1031 5.56808L25.0979 4.12614C24.9323 4.01881 24.7868 3.88314 24.6682 3.72537C24.573 3.59224 24.5094 3.43917 24.4823 3.27778C24.4532 3.08225 24.4407 2.8846 24.4451 2.68696C24.4383 2.48531 24.4644 2.2839 24.5222 2.09062C24.5683 1.93328 24.6701 1.79813 24.8087 1.71051C24.9838 1.61146 25.1833 1.56373 25.3844 1.57279C25.5903 1.55741 25.796 1.60547 25.9738 1.71051C26.1056 1.80695 26.1981 1.94784 26.2341 2.10715C26.2785 2.30361 26.298 2.5049 26.2919 2.70624V3.29431H28.3578C28.3578 3.08635 28.3578 3.08772 28.3715 2.86462C28.3853 2.64151 28.3715 2.41289 28.355 2.18978C28.3405 1.97289 28.2989 1.75867 28.2311 1.55213C28.1351 1.28108 27.9852 1.0323 27.7904 0.820833C27.6036 0.623578 27.3823 0.46209 27.1376 0.344318C26.8867 0.222064 26.6209 0.133168 26.347 0.0798938C26.0655 0.0269643 25.7796 0.000223736 25.4932 1.52729e-05C25.2185 -0.000679925 24.9444 0.0223593 24.6737 0.0688759C24.3996 0.113627 24.1316 0.189879 23.8749 0.296116C23.6248 0.396191 23.3923 0.535679 23.1863 0.70928C22.9762 0.88814 22.8047 1.10791 22.6823 1.35519C22.6109 1.50765 22.5564 1.66743 22.5198 1.83171C22.4795 2.00769 22.4515 2.18623 22.4358 2.36607C22.4192 2.54923 22.4123 2.72276 22.4123 2.88941C22.4048 3.22708 22.4367 3.56448 22.5074 3.89477C22.572 4.17934 22.6892 4.44932 22.853 4.6908C23.0477 4.96482 23.2794 5.21047 23.5417 5.42072C23.5776 5.44831 23.612 5.47773 23.6449 5.50886L23.7482 5.597L25.7053 6.95769C25.883 7.0692 26.0416 7.20873 26.1749 7.37085C26.2769 7.50862 26.3461 7.66782 26.3773 7.83635C26.4127 8.0428 26.4274 8.25224 26.4214 8.4616C26.4214 8.66956 26.4214 8.87477 26.4131 9.0662C26.4081 9.24782 26.3751 9.42758 26.3154 9.59918C26.2601 9.75571 26.1533 9.88878 26.0124 9.97654C25.8214 10.0817 25.6049 10.1318 25.3871 10.1211C25.2482 10.1314 25.1087 10.1133 24.977 10.0678C24.8454 10.0224 24.7243 9.95053 24.6214 9.85672C24.4407 9.64466 24.3503 9.3703 24.3694 9.09237C24.3694 8.8307 24.3694 8.57041 24.3776 8.31011C24.3859 8.04982 24.3859 7.78815 24.3859 7.52648H22.3338V9.1571C22.3237 9.57465 22.407 9.9892 22.5776 10.3704C22.727 10.6849 22.9564 10.9547 23.2428 11.1527C23.5417 11.357 23.8776 11.5011 24.2316 11.5769C24.632 11.6665 25.0416 11.709 25.4518 11.7036C26.0328 11.7246 26.612 11.6272 27.1541 11.4171C27.5855 11.2371 27.9389 10.9095 28.1512 10.493C28.3688 10.0798 28.4748 9.52894 28.4748 8.85549L28.4707 8.87615ZM34.8554 9.2535V8.3349H32.9728V9.26865C32.9753 9.43786 32.9596 9.60686 32.926 9.77271C32.8965 9.92027 32.8219 10.055 32.7125 10.1583C32.5816 10.2692 32.4127 10.325 32.2415 10.314C32.0633 10.327 31.887 10.2702 31.7498 10.1556C31.6406 10.0484 31.5667 9.91055 31.5377 9.76032C31.5048 9.59391 31.4896 9.42449 31.4923 9.25488V5.74712C31.492 5.72029 31.4893 5.69355 31.484 5.66724C31.4794 5.64131 31.4766 5.61507 31.4758 5.58874C31.4745 5.4314 31.5015 5.27512 31.5556 5.12738C31.6026 4.99187 31.6889 4.87344 31.8035 4.7872C31.9349 4.6939 32.0929 4.64559 32.2539 4.64948C32.4033 4.64266 32.5513 4.68157 32.6781 4.76104C32.7867 4.83428 32.8695 4.93978 32.915 5.06265C32.9646 5.2008 32.9885 5.34693 32.9852 5.49371V6.53902H34.8472V5.57497C34.8482 5.40937 34.8399 5.24384 34.8224 5.07917C34.8059 4.91281 34.766 4.74961 34.704 4.59439C34.6083 4.36089 34.4625 4.15122 34.277 3.98016C34.0985 3.81482 33.8931 3.68115 33.6697 3.5849C33.4403 3.48644 33.1998 3.41615 32.9535 3.37556C32.7065 3.33298 32.4563 3.31178 32.2057 3.31221C31.7345 3.30158 31.2671 3.3991 30.8395 3.59729C30.4629 3.77628 30.1487 4.06413 29.9374 4.42362C29.7087 4.83781 29.5955 5.30586 29.6096 5.7788V9.37194C29.5902 9.84515 29.7043 10.3143 29.9388 10.7257C30.1526 11.0723 30.4722 11.3408 30.8505 11.4915C31.2972 11.6619 31.7733 11.7419 32.2511 11.727C32.7313 11.74 33.2087 11.6508 33.6518 11.4653C34.0271 11.2989 34.3383 11.0152 34.5387 10.6569C34.7561 10.2312 34.8618 9.75735 34.8458 9.27967L34.8554 9.2535ZM41.0033 9.46972V5.57221C41.0232 5.114 40.9118 4.65964 40.6824 4.26249C40.4746 3.93202 40.1661 3.6771 39.8024 3.53532C39.378 3.37565 38.9267 3.29943 38.4734 3.31083C38.0148 3.30088 37.5588 3.38234 37.132 3.55047C36.7616 3.70099 36.4486 3.96527 36.2382 4.30518C36.0072 4.7039 35.894 5.15996 35.9118 5.62042V9.27554C35.9118 9.45182 35.9118 9.6281 35.9338 9.81127C35.9477 9.98984 35.9833 10.166 36.0398 10.336C36.1411 10.6442 36.3199 10.9211 36.5591 11.1403C36.7857 11.3449 37.054 11.4981 37.3454 11.5893C37.6545 11.6843 37.9765 11.7308 38.2999 11.727C38.657 11.7313 39.0134 11.6934 39.3617 11.614C39.6695 11.5447 39.9612 11.4171 40.2211 11.2381C40.4704 11.0591 40.6685 10.8179 40.7954 10.5384C40.9421 10.2002 41.0135 9.83416 41.0047 9.46559L41.0033 9.46972ZM39.1317 9.63499C39.133 9.76624 39.1135 9.89686 39.0738 10.022C39.0364 10.1363 38.9665 10.2372 38.8728 10.3126C38.7639 10.3931 38.6306 10.4335 38.4954 10.4269C38.3977 10.4343 38.2996 10.4187 38.2089 10.3814C38.1183 10.3441 38.0377 10.2861 37.9735 10.212C37.8566 10.0531 37.7991 9.85813 37.8109 9.66116V5.28851C37.81 5.15707 37.8324 5.0265 37.877 4.90289C37.9202 4.78523 37.9939 4.68114 38.0905 4.60128C38.1966 4.51789 38.3289 4.47493 38.4637 4.48009C38.6215 4.46887 38.7776 4.51812 38.9003 4.61781C38.9974 4.71207 39.0637 4.83355 39.0904 4.96624C39.1205 5.11303 39.1348 5.26262 39.1331 5.41246L39.1317 9.63499ZM46.0536 5.18797V3.32598C45.7779 3.31782 45.503 3.35982 45.2424 3.44993C45.0233 3.53319 44.8256 3.66449 44.6639 3.83417C44.4802 4.03503 44.3216 4.25747 44.1916 4.49661L44.2081 3.46783H42.313V11.7311H44.1902V6.79105C44.19 6.74502 44.1872 6.69905 44.1819 6.65333C44.1819 6.60512 44.1737 6.5583 44.1737 6.5156C44.1687 6.26613 44.2093 6.01784 44.2935 5.78293C44.3693 5.57435 44.5085 5.39473 44.6915 5.26923C44.9078 5.13312 45.1606 5.06633 45.4159 5.0778C45.5245 5.07584 45.6329 5.08507 45.7396 5.10534C45.8472 5.12721 45.952 5.16093 46.0522 5.20588L46.0536 5.18797ZM51.988 7.88042V5.61904C51.989 5.42678 51.9747 5.23474 51.9453 5.04474C51.9179 4.85391 51.8622 4.66824 51.78 4.49386C51.6478 4.21837 51.4472 3.98131 51.1974 3.80525C50.9467 3.63065 50.6669 3.50195 50.3711 3.42514C50.0769 3.34631 49.7736 3.30649 49.469 3.3067C49.0013 3.29651 48.5369 3.38668 48.107 3.57113C47.7279 3.73741 47.4091 4.01628 47.1939 4.36991C46.9597 4.7777 46.8438 5.24269 46.8592 5.71269V9.1144C46.8439 9.60946 46.938 10.1018 47.1347 10.5563C47.3114 10.9369 47.6126 11.2458 47.9885 11.4323C48.4532 11.6432 48.9605 11.7432 49.4704 11.7242C49.9075 11.7348 50.3426 11.6623 50.7526 11.5108C51.1107 11.375 51.4167 11.1297 51.6271 10.8098C51.8595 10.4288 51.9731 9.98718 51.9535 9.54134V8.89267H50.1301C50.1301 9.03039 50.1301 9.16811 50.1301 9.32649C50.1291 9.47534 50.1116 9.62361 50.0778 9.76858C50.0495 9.9008 49.9818 10.0213 49.8836 10.1143C49.7534 10.207 49.597 10.2557 49.4372 10.2532C49.2773 10.2508 49.1225 10.1972 48.9953 10.1005C48.8945 9.99624 48.8282 9.86355 48.8052 9.72038C48.776 9.56186 48.7622 9.4009 48.7639 9.23973V7.86252L51.988 7.88042ZM50.1094 6.55141H48.7529V5.61766C48.7404 5.41152 48.7945 5.20682 48.9071 5.03372C48.9736 4.95413 49.0586 4.89213 49.1547 4.85322C49.2507 4.8143 49.3549 4.79967 49.458 4.81062C49.5512 4.80315 49.6447 4.81757 49.7313 4.85272C49.8179 4.88787 49.895 4.94278 49.9566 5.01307C50.0653 5.16526 50.1196 5.34959 50.1108 5.53641L50.1094 6.55141ZM56.9955 5.20588V3.32598C56.7198 3.31785 56.445 3.35985 56.1843 3.44993C55.9651 3.53302 55.7675 3.66434 55.6059 3.83417C55.4224 4.03521 55.2638 4.25763 55.1335 4.49661L55.15 3.46783H53.2605V11.7311H55.1376V6.79105C55.1378 6.74505 55.1355 6.69908 55.1308 6.65333C55.1255 6.6076 55.1228 6.56163 55.1225 6.5156C55.1171 6.26621 55.1572 6.01792 55.2409 5.78293C55.3171 5.57453 55.4562 5.395 55.639 5.26923C55.8553 5.13304 56.108 5.06624 56.3634 5.0778C56.4715 5.07585 56.5794 5.08508 56.6856 5.10534C56.7937 5.12713 56.899 5.16085 56.9996 5.20588" fill="#2B2522"/>
<path d="M6.23739 1.70344V0.0204834H0V1.70344H2.06582V11.7268H4.14954V1.70344H6.23739ZM13.1923 9.08391V2.83137C13.1923 2.67988 13.1923 2.5215 13.1772 2.35486C13.1661 2.18747 13.1445 2.02096 13.1124 1.85631C13.0856 1.69878 13.0394 1.54519 12.9747 1.39907C12.8513 1.14187 12.6764 0.912671 12.461 0.725615C12.2504 0.547047 12.0123 0.403797 11.7559 0.301435C11.4942 0.196985 11.2217 0.12215 10.9433 0.0783261C10.6632 0.0342169 10.3799 0.0130296 10.0963 0.0149744C9.68547 0.0102685 9.27561 0.0565285 8.87613 0.152696C8.52087 0.23641 8.18511 0.387921 7.88729 0.598912C7.60047 0.80864 7.37159 1.08775 7.2221 1.41009C7.05228 1.7974 6.96909 2.21713 6.97833 2.63994V9.11284C6.96779 9.54421 7.05096 9.97274 7.2221 10.3689C7.3689 10.6907 7.59962 10.9671 7.89005 11.169C8.19283 11.3748 8.53223 11.5206 8.8899 11.5987C9.29705 11.6867 9.71287 11.7283 10.1294 11.7227C10.6737 11.7364 11.2161 11.6529 11.7311 11.4761C12.1706 11.3255 12.5488 11.0353 12.8081 10.6498C13.0642 10.2633 13.1951 9.74222 13.2006 9.08667L13.1923 9.08391ZM11.1155 9.05637C11.1365 9.33738 11.0481 9.61564 10.869 9.83312C10.7051 10.0135 10.4475 10.1086 10.0977 10.1086C9.85695 10.1245 9.61781 10.059 9.41875 9.92264C9.26685 9.79975 9.16341 9.62702 9.12678 9.4351C9.07704 9.20911 9.05575 8.97778 9.06343 8.7465V3.32028H7.89831L10.1018 0.852319L12.3054 3.32028H11.1279V9.06463L11.1155 9.05637ZM20.756 4.42343V2.28049C20.7616 1.96647 20.7353 1.65268 20.6775 1.34398C20.6326 1.08817 20.5335 0.844919 20.3869 0.630588C20.2422 0.42721 20.0411 0.270652 19.8084 0.180239C19.5069 0.064291 19.1852 0.00996906 18.8623 0.0204834H14.688V11.7268H16.7731V6.53745H18.5235C18.6323 6.53745 18.7618 6.53745 18.9077 6.52919C19.0537 6.52092 19.1997 6.51128 19.3429 6.492C19.4699 6.4785 19.5951 6.45126 19.7162 6.41075C19.9791 6.31929 20.2098 6.15323 20.38 5.93285C20.531 5.7289 20.6341 5.49353 20.6816 5.24425C20.7314 4.97495 20.7545 4.70139 20.7505 4.42756L20.756 4.42343ZM18.7136 4.0144C18.719 4.17849 18.7046 4.34264 18.6709 4.50331C18.645 4.62967 18.574 4.74228 18.4712 4.82007C18.3349 4.90744 18.174 4.94849 18.0126 4.93713H16.7731V1.67589H17.9189C18.0294 1.6659 18.1408 1.67965 18.2455 1.71623C18.3503 1.75281 18.446 1.81137 18.5263 1.88798C18.667 2.06664 18.7344 2.29216 18.7149 2.51875L18.7136 4.0144Z" fill="#E41018"/>
</svg>
