<svg width="50" height="29" viewBox="0 0 50 29" fill="none" xmlns="http://www.w3.org/2000/svg">
<path d="M30.6888 27.8866C38.4483 31.8161 48.1436 24.6765 49.1522 16.9098C49.8571 11.4874 46.9832 5.7035 42.3759 2.7067C40.8287 1.69813 39.043 0.859465 37.2138 0.52689C34.273 -0.00269979 31.2347 1.21554 29.6929 3.82553C28.6916 5.51913 28.6644 7.49832 28.5361 9.4034C28.3843 11.6627 28.6102 13.8082 28.1312 16.0495C27.5492 18.777 26.575 21.8497 27.6776 24.5681C28.2347 26.0102 29.3088 27.1932 30.6906 27.8866" fill="#FBBA00"/>
<path d="M34.4416 18.6448C33.8271 18.6448 33.2704 18.2833 32.9161 17.6778L29.612 11.6788C29.479 11.4453 29.4437 11.1688 29.5138 10.9094C29.5838 10.65 29.7537 10.4289 29.9862 10.2942C30.2209 10.173 30.4922 10.1428 30.7478 10.2095C31.0034 10.2763 31.2253 10.4352 31.3707 10.6557L34.4434 15.9625L37.4764 10.6847C37.6215 10.4638 37.8434 10.3046 38.0992 10.2378C38.3549 10.1711 38.6263 10.2015 38.8609 10.3232C39.0934 10.4578 39.2632 10.6789 39.3333 10.9383C39.4034 11.1977 39.3681 11.4743 39.235 11.7077L35.9671 17.6724C35.6056 18.2869 35.0634 18.6393 34.4434 18.6393" fill="white"/>
<path d="M42.8601 10.1748C43.4746 10.1748 44.0313 10.5363 44.3856 11.1418L47.6969 17.1408C47.8299 17.3742 47.8653 17.6508 47.7952 17.9102C47.7251 18.1696 47.5553 18.3907 47.3228 18.5253C47.0881 18.6466 46.8168 18.6768 46.5612 18.6101C46.3056 18.5433 46.0837 18.3844 45.9382 18.1638L42.8655 12.8589L39.8308 18.1367C39.6853 18.3573 39.4634 18.5162 39.2078 18.583C38.9522 18.6497 38.6809 18.6195 38.4463 18.4982C38.2121 18.3647 38.0403 18.144 37.9685 17.8842C37.8967 17.6244 37.9307 17.3467 38.0631 17.1119L41.331 11.1472C41.6925 10.5345 42.2347 10.1802 42.8565 10.1802" fill="white"/>
<path d="M13.9644 10.1514C13.1268 10.1514 12.308 10.3997 11.6116 10.8651C10.9152 11.3304 10.3724 11.9918 10.0519 12.7656C9.73133 13.5395 9.64746 14.391 9.81087 15.2125C9.97427 16.034 10.3776 16.7885 10.9699 17.3808C11.5621 17.9731 12.3167 18.3764 13.1382 18.5398C13.9597 18.7032 14.8112 18.6194 15.585 18.2988C16.3589 17.9783 17.0203 17.4355 17.4856 16.7391C17.9509 16.0426 18.1993 15.2239 18.1993 14.3863C18.1974 13.2637 17.7506 12.1876 16.9568 11.3939C16.163 10.6001 15.087 10.1533 13.9644 10.1514ZM13.9644 16.5299C13.5407 16.5303 13.1264 16.405 12.774 16.1699C12.4215 15.9347 12.1467 15.6003 11.9843 15.209C11.8219 14.8176 11.7792 14.3869 11.8617 13.9713C11.9441 13.5557 12.148 13.1739 12.4474 12.8742C12.7469 12.5745 13.1285 12.3703 13.5441 12.2875C13.9596 12.2047 14.3904 12.247 14.7818 12.4091C15.1733 12.5712 15.5079 12.8457 15.7434 13.1979C15.9788 13.5502 16.1045 13.9644 16.1045 14.3881C16.1035 14.9555 15.8778 15.4995 15.4767 15.9009C15.0756 16.3023 14.5319 16.5285 13.9644 16.5299Z" fill="#1D1D1B"/>
<path d="M26.2991 10.1768C26.0217 10.1777 25.756 10.2886 25.5602 10.4851C25.3644 10.6816 25.2544 10.9477 25.2544 11.2251V14.7009C25.2394 15.182 25.0377 15.6383 24.6921 15.9733C24.3465 16.3083 23.884 16.4957 23.4027 16.4957C22.9213 16.4957 22.4589 16.3083 22.1133 15.9733C21.7676 15.6383 21.5659 15.182 21.5509 14.7009V11.2251C21.5509 10.9473 21.4406 10.6809 21.2441 10.4844C21.0477 10.288 20.7813 10.1777 20.5035 10.1777C20.2257 10.1777 19.9593 10.288 19.7628 10.4844C19.5664 10.6809 19.4561 10.9473 19.4561 11.2251V14.7009C19.4561 15.7473 19.8718 16.7509 20.6117 17.4909C21.3517 18.2309 22.3553 18.6466 23.4018 18.6466C24.4482 18.6466 25.4518 18.2309 26.1918 17.4909C26.9318 16.7509 27.3475 15.7473 27.3475 14.7009V11.2251C27.347 10.9475 27.2367 10.6814 27.0405 10.485C26.8444 10.2885 26.5785 10.1777 26.301 10.1768" fill="#1D1D1B"/>
<path d="M9.71138 10.9184C9.67579 10.7859 9.61435 10.6619 9.53059 10.5533C9.44683 10.4447 9.34242 10.3538 9.22336 10.2857C8.97982 10.1617 8.69897 10.1322 8.43497 10.203C8.17097 10.2737 7.94252 10.4397 7.79365 10.6689L4.97941 15.5491L2.16156 10.6689C2.09735 10.5416 2.0078 10.4288 1.89841 10.3374C1.78902 10.2459 1.66211 10.1778 1.52545 10.1371C1.38879 10.0965 1.24526 10.0842 1.10369 10.1011C0.962108 10.1179 0.825459 10.1635 0.702129 10.235C0.578798 10.3065 0.471383 10.4025 0.386477 10.517C0.30157 10.6316 0.240963 10.7623 0.208372 10.9011C0.175781 11.0399 0.171897 11.1838 0.196954 11.3242C0.222011 11.4646 0.275482 11.5983 0.354087 11.7173L3.42679 17.0511C3.53488 17.2392 3.67008 17.4103 3.82805 17.559L2.77791 19.3791C2.69675 19.534 2.65706 19.7071 2.66271 19.8819C2.66837 20.0566 2.71917 20.2268 2.81017 20.3761C2.90117 20.5253 3.02927 20.6484 3.18199 20.7335C3.33472 20.8185 3.50686 20.8625 3.68165 20.8613C3.88267 20.8607 4.08004 20.8075 4.25413 20.707C4.42822 20.6065 4.57296 20.4621 4.67395 20.2883L9.61558 11.7155C9.68453 11.596 9.72913 11.464 9.74682 11.3272C9.7645 11.1904 9.75491 11.0514 9.71861 10.9184" fill="#1D1D1B"/>
</svg>
