<svg width="53" height="21" viewBox="0 0 53 21" fill="none" xmlns="http://www.w3.org/2000/svg">
<path d="M15.461 3.77638C14.5887 2.47538 13.3725 1.44192 11.9478 0.790982C10.5231 0.140046 8.94573 -0.102835 7.3912 0.089363C8.57998 0.0585776 9.75727 0.32862 10.8138 0.874425C11.8703 1.42023 12.7718 2.2241 13.4346 3.21143C13.941 3.97257 14.2906 4.82694 14.4631 5.72467C14.6357 6.6224 14.6277 7.54551 14.4396 8.44011C14.2515 9.33472 13.8871 10.1829 13.3677 10.9351C12.8482 11.6874 12.1842 12.3286 11.4142 12.8214C9.85306 13.8327 7.95726 14.1906 6.1349 13.818C4.31253 13.4454 2.70933 12.3721 1.67039 10.8293C1.01488 9.84828 0.623789 8.71464 0.534972 7.53814C0.446155 6.36164 0.662626 5.18214 1.16342 4.11386C0.366402 5.44687 -0.0361366 6.97863 0.00254769 8.53126C0.041232 10.0839 0.519552 11.5937 1.38197 12.8854C3.93463 16.7196 9.15443 17.7915 13.0421 15.2641C13.9618 14.6744 14.7551 13.9077 15.3756 13.0085C15.9962 12.1094 16.4317 11.0957 16.6568 10.0267C16.8819 8.95761 16.8921 7.85444 16.6868 6.7814C16.4815 5.70835 16.0648 4.68686 15.461 3.77638Z" fill="#D8DA00"/>
<path d="M11.7197 7.93944C11.7197 8.33346 11.6029 8.71862 11.384 9.04624C11.1651 9.37385 10.8539 9.62919 10.4899 9.77997C10.1259 9.93076 9.72532 9.97021 9.33888 9.89334C8.95243 9.81647 8.59746 9.62673 8.31885 9.34812C8.04024 9.06951 7.8505 8.71454 7.77363 8.3281C7.69676 7.94165 7.73622 7.54109 7.887 7.17707C8.03778 6.81305 8.29312 6.50191 8.62073 6.28301C8.94835 6.0641 9.33351 5.94727 9.72753 5.94727C10.2559 5.94727 10.7626 6.15716 11.1362 6.53076C11.5098 6.90437 11.7197 7.41108 11.7197 7.93944Z" fill="#89CCCA"/>
<path d="M12.3714 19.5156C10.9843 19.5164 9.61916 19.169 8.40118 18.5052C7.1832 17.8414 6.15132 16.8825 5.40014 15.7164C4.64897 14.5503 4.20253 13.2143 4.10175 11.8308C4.00097 10.4474 4.24908 9.06077 4.82333 7.79811C5.39758 6.53544 6.27959 5.43712 7.38853 4.60384C8.49746 3.77055 9.79782 3.22896 11.1704 3.02872C12.543 2.82847 13.9439 2.97597 15.2447 3.45771C16.5454 3.93944 17.7045 4.73999 18.6155 5.78596C17.4564 4.11916 15.7954 2.8659 13.8745 2.20868C11.9535 1.55146 9.87294 1.5246 7.93568 2.132C5.99842 2.73941 4.30564 3.94937 3.10382 5.58569C1.902 7.22202 1.25391 9.19926 1.25391 11.2295C1.25391 13.2598 1.902 15.237 3.10382 16.8733C4.30564 18.5097 5.99842 19.7196 7.93568 20.327C9.87294 20.9344 11.9535 20.9076 13.8745 20.2503C15.7954 19.5931 17.4564 18.3399 18.6155 16.6731C17.8392 17.5666 16.8799 18.2829 15.8026 18.7733C14.7252 19.2637 13.5551 19.5169 12.3714 19.5156Z" fill="#9FD9F8"/>
<path fill-rule="evenodd" clip-rule="evenodd" d="M22.2491 12.133C22.2105 12.8421 22.6698 13.3223 23.3864 13.3223C23.6198 13.3223 23.9157 13.2985 24.0019 13.0488H24.7973C24.7572 13.7921 23.9558 13.9913 23.3478 13.9913C22.1079 13.9913 21.4463 13.2123 21.4463 11.9962C21.4463 10.8351 22.0157 9.94602 23.2467 9.94602C24.4777 9.94602 24.946 10.7488 24.946 11.8862V12.1285L22.2491 12.133ZM24.1432 11.4625C24.1357 10.9406 23.7462 10.621 23.2318 10.621C22.7412 10.621 22.2818 10.9406 22.2506 11.4625H24.1432ZM27.1433 12.6236C27.1433 13.4963 28.0086 13.9943 28.8025 13.9943C29.6752 13.9943 30.478 13.4487 30.478 12.5225C30.478 11.6304 29.8625 11.2528 29.14 10.9094L28.6806 10.6909C28.3832 10.5511 28.0725 10.3489 28.0725 9.96683C28.0725 9.4673 28.462 9.30376 28.8828 9.30376C29.3035 9.30376 29.6544 9.52974 29.6261 9.97427H30.4289V9.87168C30.4289 9.0763 29.6261 8.56934 28.9021 8.56934C28.0294 8.56934 27.2667 9.12239 27.2667 10.0337C27.2667 10.8202 27.8748 11.1562 28.4754 11.4446C29.076 11.733 29.6752 11.9516 29.6752 12.5269C29.6752 13.0413 29.2544 13.2599 28.8025 13.2599C28.3029 13.2599 27.9536 12.9625 27.9446 12.4571H27.1433V12.6206V12.6236ZM33.4707 12.13C33.4321 12.8391 33.8914 13.3193 34.6095 13.3193C34.8429 13.3193 35.1388 13.2956 35.225 13.0458H36.0204C35.9817 13.7891 35.1789 13.9884 34.5709 13.9884C33.3324 13.9884 32.6679 13.2093 32.6679 11.9932C32.6679 10.8321 33.2373 9.94304 34.4683 9.94304C35.6993 9.94304 36.1661 10.7459 36.1661 11.8832V12.1255L33.4707 12.13ZM35.3707 11.4625C35.3633 10.9406 34.9738 10.621 34.4594 10.621C33.9688 10.621 33.5079 10.9406 33.4767 11.4625H35.3707ZM39.0875 10.0204H38.2846V13.9244H39.0875V11.8906C39.0875 11.1592 39.4145 10.621 40.2025 10.621C40.7392 10.621 40.9741 10.902 40.9741 11.4164V13.9259H41.7769V11.4699C41.7769 10.566 41.2164 9.95048 40.2902 9.95048C39.862 9.95048 39.3551 10.1304 39.1008 10.4574H39.0875V10.0204ZM47.1305 10.9941V10.8767C47.1305 10.2538 46.3871 9.94899 45.6646 9.94899C45.0491 9.94899 44.1229 10.1512 44.1229 11.064C44.1122 11.2599 44.1615 11.4545 44.2643 11.6216C44.3671 11.7887 44.5185 11.9204 44.6983 11.9991C45.0722 12.1503 45.4615 12.26 45.8594 12.3262C46.179 12.3812 46.4986 12.4422 46.4986 12.8406C46.4986 13.2866 45.8757 13.3862 45.5397 13.3862C45.2825 13.3862 44.7964 13.3476 44.783 12.8867H43.9802C43.9802 13.752 44.7993 13.9928 45.5234 13.9928C46.2786 13.9928 47.3074 13.7817 47.3074 12.8406C47.3074 11.788 46.2325 11.6795 45.4446 11.5234C45.1472 11.4684 44.9302 11.3599 44.9302 11.0239C44.9302 10.6269 45.3762 10.5571 45.6735 10.5571C45.9159 10.5571 46.3202 10.6433 46.3366 10.9927L47.1305 10.9941ZM50.3016 12.1315C50.263 12.8406 50.7238 13.3208 51.4389 13.3208C51.6738 13.3208 51.9697 13.297 52.0559 13.0473H52.8513C52.8127 13.7906 52.0098 13.9898 51.4018 13.9898C50.1634 13.9898 49.5003 13.2108 49.5003 11.9947C49.5003 10.8336 50.0697 9.94453 51.3007 9.94453C52.5317 9.94453 53 10.7473 53 11.8847V12.127L50.3016 12.1315ZM52.1957 11.461C52.1868 10.9391 51.7987 10.6195 51.2828 10.6195C50.7922 10.6195 50.3314 10.9391 50.3001 11.461H52.1957ZM52.8855 16.9618C52.6927 16.9187 52.4958 16.8963 52.2983 16.8948C51.876 16.8948 51.4865 17.0688 51.4865 17.4628C51.4865 18.1243 52.4217 17.879 52.4217 18.2373C52.4217 18.4157 52.2046 18.4618 52.0678 18.4618C51.8844 18.4595 51.7035 18.4185 51.5371 18.3414L51.5044 18.7324C51.7043 18.7821 51.9094 18.8085 52.1154 18.8112C52.554 18.8112 52.9836 18.6402 52.9836 18.2165C52.9836 17.5549 52.047 17.7408 52.047 17.4494C52.047 17.2933 52.2195 17.2472 52.3637 17.2472C52.5274 17.246 52.6902 17.2721 52.8454 17.3245L52.8855 16.9618ZM51.1015 16.9618C50.9091 16.9188 50.7128 16.8964 50.5157 16.8948C50.0935 16.8948 49.704 17.0688 49.704 17.4628C49.704 18.1243 50.6406 17.879 50.6406 18.2373C50.6406 18.4157 50.4235 18.4618 50.2868 18.4618C50.1033 18.4595 49.9225 18.4185 49.756 18.3414L49.7233 18.7324C49.9233 18.7821 50.1283 18.8085 50.3343 18.8112C50.7729 18.8112 51.2026 18.6402 51.2026 18.2165C51.2026 17.5549 50.2659 17.7408 50.2659 17.4494C50.2659 17.2933 50.4384 17.2472 50.5826 17.2472C50.7464 17.246 50.9091 17.2721 51.0643 17.3245L51.1015 16.9618ZM49.2624 18.2775C49.0511 18.3921 48.8158 18.4552 48.5756 18.4618C48.2425 18.4618 48.0091 18.2953 47.9809 17.9995H49.4111C49.4111 17.3602 49.194 16.8934 48.4269 16.8934C47.7846 16.8934 47.4665 17.3305 47.4665 17.8597C47.4665 18.4544 47.8634 18.8097 48.5473 18.8097C48.7926 18.8164 49.0359 18.7654 49.258 18.661L49.2624 18.2775ZM47.9853 17.6724C47.9874 17.6124 48.0015 17.5533 48.0269 17.4989C48.0523 17.4445 48.0885 17.3957 48.1332 17.3556C48.1779 17.3155 48.2303 17.2848 48.2871 17.2654C48.344 17.246 48.4042 17.2383 48.4641 17.2427C48.5219 17.2389 48.5799 17.2473 48.6342 17.2674C48.6886 17.2876 48.738 17.3189 48.7794 17.3595C48.8208 17.4 48.8532 17.4489 48.8744 17.5028C48.8957 17.5567 48.9053 17.6145 48.9026 17.6724H47.9853ZM47.2108 16.9543C47.0403 16.9108 46.8648 16.8903 46.6889 16.8934C46.0422 16.8934 45.6884 17.3126 45.6884 17.8419C45.6884 18.3994 46.0303 18.8097 46.7083 18.8097C46.8896 18.8146 47.0708 18.7941 47.2465 18.7488L47.2227 18.3548C47.0907 18.4066 46.951 18.4357 46.8094 18.441C46.4317 18.441 46.2504 18.1808 46.2504 17.8463C46.2434 17.7714 46.2524 17.6957 46.2769 17.6245C46.3013 17.5533 46.3407 17.4881 46.3923 17.4333C46.4439 17.3784 46.5066 17.3352 46.5762 17.3064C46.6458 17.2777 46.7207 17.2641 46.796 17.2665C46.9212 17.2632 47.0458 17.286 47.1617 17.3334L47.2108 16.9543ZM45.4267 16.9543C45.2563 16.9108 45.0808 16.8903 44.9049 16.8934C44.2582 16.8934 43.9044 17.3126 43.9044 17.8419C43.9044 18.3994 44.2463 18.8097 44.9242 18.8097C45.1056 18.8146 45.2867 18.7941 45.4624 18.7488L45.4386 18.3548C45.3067 18.4066 45.167 18.4357 45.0253 18.441C44.6477 18.441 44.4663 18.1808 44.4663 17.8463C44.4593 17.7712 44.4684 17.6955 44.4929 17.6242C44.5175 17.5528 44.557 17.4876 44.6087 17.4327C44.6605 17.3778 44.7234 17.3346 44.7932 17.306C44.863 17.2773 44.938 17.2639 45.0134 17.2665C45.1387 17.2632 45.2632 17.2859 45.3792 17.3334L45.4267 16.9543ZM43.4821 16.9365H42.9529V17.8285C42.9529 18.0634 42.8681 18.4366 42.4786 18.4366C42.1337 18.4366 42.1292 18.1392 42.1292 17.9103V16.932H41.5851V18.0872C41.5851 18.499 41.7977 18.8053 42.2883 18.8053C42.4161 18.8063 42.5427 18.7803 42.6597 18.7291C42.7768 18.6778 42.8818 18.6025 42.9677 18.5079H42.9752V18.7562H43.4851L43.4821 16.9365ZM40.9547 16.3314C40.7366 16.2699 40.5109 16.2398 40.2842 16.2422C39.7907 16.2422 39.3045 16.4444 39.3045 16.9989C39.3045 17.8196 40.534 17.6248 40.534 18.0976C40.534 18.3221 40.2486 18.4172 40.036 18.4172C39.816 18.4153 39.5991 18.3645 39.4011 18.2686L39.3491 18.7146C39.5836 18.7785 39.8256 18.811 40.0687 18.8112C40.6351 18.8112 41.1213 18.6046 41.1213 18.0679C41.1213 17.2353 39.8918 17.4167 39.8918 16.987C39.8918 16.7164 40.1415 16.6421 40.3378 16.6421C40.533 16.643 40.7264 16.6793 40.9087 16.7492L40.9547 16.3314ZM37.1622 16.9365V17.1848H37.1547C37.0834 17.0849 36.9875 17.005 36.8763 16.953C36.7651 16.9009 36.6424 16.8783 36.5199 16.8874C35.9015 16.8874 35.6443 17.3959 35.6443 17.8359C35.6443 18.3265 35.8777 18.7607 36.4872 18.7607C36.6103 18.7662 36.7328 18.7421 36.8446 18.6903C36.9564 18.6386 37.0541 18.5607 37.1295 18.4633H37.1369C37.1369 18.78 37.1087 19.1754 36.514 19.1754C36.3051 19.1593 36.101 19.1049 35.9119 19.0149L35.8673 19.4207C36.0962 19.5051 36.3384 19.5474 36.5824 19.5456C37.4506 19.5456 37.6751 19.0758 37.6751 18.5778V16.9439L37.1622 16.9365ZM36.6641 18.3979C36.3549 18.3979 36.2062 18.0916 36.2062 17.8434C36.2062 17.5624 36.3222 17.2635 36.6879 17.2635C37.0016 17.2635 37.1339 17.5193 37.1339 17.833C37.1339 18.1466 36.9972 18.3979 36.6597 18.3979H36.6641ZM33.3176 18.7681H33.8558V17.8761C33.8558 17.6412 33.9405 17.268 34.33 17.268C34.6749 17.268 34.6794 17.5653 34.6794 17.7943V18.7711H35.222V17.6159C35.222 17.2041 35.0094 16.8978 34.5188 16.8978C34.3901 16.8898 34.2613 16.9127 34.1432 16.9644C34.025 17.0161 33.9209 17.0952 33.8394 17.1952H33.832V16.9469H33.322L33.3176 18.7681ZM32.213 16.6035H32.7511V16.1485H32.213V16.6035ZM32.213 18.7681H32.7511V16.9439H32.213V18.7681ZM30.6504 18.7681H31.1886V18.0961C31.1886 17.833 31.1886 17.3528 31.6257 17.3528C31.7078 17.3492 31.7897 17.3624 31.8666 17.3914V16.9112C31.8124 16.8993 31.757 16.8943 31.7015 16.8963C31.5703 16.901 31.4441 16.9482 31.3419 17.0308C31.2398 17.1134 31.1672 17.2269 31.1351 17.3542H31.1277V16.938H30.6504V18.7681ZM30.084 16.938H29.5458V17.83C29.5458 18.0649 29.4611 18.438 29.0716 18.438C28.7267 18.438 28.7222 18.1407 28.7222 17.9117V16.9335H28.184V18.0887C28.184 18.5005 28.3966 18.8067 28.8872 18.8067C29.015 18.8078 29.1416 18.7818 29.2587 18.7306C29.3757 18.6793 29.4807 18.604 29.5666 18.5094H29.5741V18.7577H30.084V16.938ZM27.6652 16.9632C27.4723 16.9202 27.2755 16.8977 27.0779 16.8963C26.6557 16.8963 26.2662 17.0703 26.2662 17.4643C26.2662 18.1258 27.2028 17.8805 27.2028 18.2388C27.2028 18.4172 26.9857 18.4633 26.849 18.4633C26.6655 18.461 26.4847 18.42 26.3182 18.3429L26.2855 18.7339C26.4855 18.7836 26.6905 18.81 26.8965 18.8127C27.3351 18.8127 27.7648 18.6417 27.7648 18.218C27.7648 17.5564 26.8281 17.7423 26.8281 17.4509C26.8281 17.2948 27.0006 17.2487 27.1448 17.2487C27.3086 17.2475 27.4713 17.2736 27.6265 17.326L27.6652 16.9632ZM23.9484 18.7696H24.4866V17.8776C24.4866 17.6427 24.5713 17.2695 24.9608 17.2695C25.3058 17.2695 25.3102 17.5668 25.3102 17.7958V18.7725H25.8558V17.6174C25.8558 17.2056 25.6432 16.8993 25.1526 16.8993C25.0239 16.8913 24.8951 16.9141 24.777 16.9658C24.6588 17.0176 24.5547 17.0967 24.4732 17.1966H24.4658V16.9484H23.9558L23.9484 18.7696ZM21.763 18.7696H23.4266V18.3786H22.3264V17.6813H23.3284V17.2903H22.3324V16.6793H23.4251V16.2883H21.7704L21.763 18.7696Z" fill="#1D1D1B"/>
</svg>
