<svg width="28" height="32" viewBox="0 0 28 32" fill="none" xmlns="http://www.w3.org/2000/svg">
<path fill-rule="evenodd" clip-rule="evenodd" d="M0.489435 6.90983C0 8.41615 0 10.2774 0 14V14.5C0 18.6905 0 20.7858 0.618087 22.4612C1.63063 25.2058 3.79422 27.3694 6.53883 28.3819C8.21423 29 10.3095 29 14.5 29H17.7159C18.9423 29 19.5555 29 20.1591 29.0737C20.6953 29.1391 21.2253 29.2479 21.7439 29.399C22.3277 29.569 22.8913 29.8106 24.0186 30.2937L28 32V29V14C28 10.2774 28 8.41615 27.5106 6.90983C26.5214 3.86545 24.1346 1.47861 21.0902 0.489435C19.5838 0 17.7226 0 14 0C10.2774 0 8.41615 0 6.90983 0.489435C3.86545 1.47861 1.47861 3.86545 0.489435 6.90983ZM4.30336 21.2166C4.34269 21.2535 4.43175 21.3371 4.48251 21.3815C4.59399 21.479 4.75409 21.6122 4.96289 21.7688C5.38035 22.0819 5.99367 22.4897 6.80318 22.8945C8.42546 23.7056 10.8276 24.5 14.0004 24.5C17.1732 24.5 19.5753 23.7056 21.1976 22.8945C22.0071 22.4897 22.6204 22.0819 23.0379 21.7688C23.2467 21.6122 23.4068 21.479 23.5183 21.3815L23.7075 21.2071C24.098 20.8166 24.098 20.1834 23.7075 19.7929C23.3172 19.4026 22.6845 19.4024 22.2939 19.7923L22.2013 19.8764C22.1252 19.9429 22.0041 20.0441 21.8379 20.1688C21.5054 20.4182 20.9937 20.7604 20.3032 21.1056C18.9255 21.7945 16.8276 22.5 14.0004 22.5C11.1732 22.5 9.07532 21.7945 7.6976 21.1056C7.00711 20.7604 6.49543 20.4182 6.16289 20.1688C5.99669 20.0441 5.87554 19.9429 5.79952 19.8764L5.70498 19.7904C5.3142 19.403 4.68275 19.4034 4.29328 19.7929C3.90276 20.1834 3.90276 20.8166 4.29328 21.2071L4.30336 21.2166Z" fill="black"/>
</svg>
