<svg width="18" height="18" viewBox="0 0 18 18" fill="none" xmlns="http://www.w3.org/2000/svg">
<path fill-rule="evenodd" clip-rule="evenodd" d="M3.88041 9.00165C3.88041 8.41707 3.97744 7.85654 4.15083 7.33088L1.11755 5.01465C0.526359 6.21488 0.193359 7.56741 0.193359 9.00165C0.193359 10.4348 0.526078 11.7863 1.11628 12.9858L4.14788 10.6651C3.97617 10.1418 3.88041 9.58342 3.88041 9.00165Z" fill="#FBBC05"/>
<path fill-rule="evenodd" clip-rule="evenodd" d="M9.20189 3.68184C10.4719 3.68184 11.619 4.13184 12.5202 4.86816L15.142 2.25C13.5444 0.859078 11.496 0 9.20189 0C5.64014 0 2.57902 2.03681 1.11328 5.013L4.14642 7.32923C4.84533 5.20776 6.83756 3.68184 9.20189 3.68184Z" fill="#EA4335"/>
<path fill-rule="evenodd" clip-rule="evenodd" d="M9.20189 14.3183C6.8377 14.3183 4.84547 12.7924 4.14656 10.6709L1.11328 12.9867C2.57902 15.9633 5.64014 18.0001 9.20189 18.0001C11.4001 18.0001 13.499 17.2195 15.0741 15.757L12.195 13.5312C11.3826 14.0429 10.3595 14.3183 9.20189 14.3183Z" fill="#34A853"/>
<path fill-rule="evenodd" clip-rule="evenodd" d="M17.8042 8.99959C17.8042 8.46775 17.7222 7.89498 17.5993 7.36328H9.20117V10.8405H14.0353C13.7936 12.0261 13.1357 12.9375 12.1942 13.5307L15.0734 15.7565C16.728 14.2209 17.8042 11.9332 17.8042 8.99959Z" fill="#4285F4"/>
</svg>
