<svg width="23" height="27" viewBox="0 0 23 27" fill="none" xmlns="http://www.w3.org/2000/svg">
<path d="M22.8883 4.21844C22.8866 4.11915 22.8642 4.02131 22.8224 3.9312C22.7807 3.84108 22.7205 3.76069 22.6458 3.69517C22.5676 3.63044 22.4768 3.58277 22.3791 3.55523C22.2813 3.52769 22.1789 3.5209 22.0784 3.53529C22.0202 3.53529 16.1571 4.34926 12.0301 0.206732C11.8919 0.0740825 11.7077 0 11.516 0C11.3244 0 11.1402 0.0740825 11.002 0.206732C6.87499 4.34926 1.01186 3.54498 0.953661 3.53529C0.853505 3.52141 0.751571 3.528 0.654038 3.55465C0.556506 3.5813 0.465406 3.62746 0.386261 3.69033C0.307452 3.75496 0.24302 3.83531 0.19709 3.92625C0.15116 4.01719 0.124744 4.11671 0.119534 4.21844C-0.142343 9.45595 -0.195689 16.8156 2.37944 20.3573C5.03215 23.9911 10.2891 26.6559 11.1572 26.9466C11.3911 27.0178 11.641 27.0178 11.8749 26.9466C12.743 26.6753 17.9999 23.9911 20.6526 20.3573C23.2035 16.8253 23.1308 9.45595 22.8883 4.21844ZM19.4499 19.4998C17.2288 22.5473 12.5781 25.1249 11.4918 25.5319C10.4055 25.1443 5.75474 22.5521 3.53364 19.4998C1.31253 16.4474 1.30768 9.98891 1.51136 5.04695C3.32025 5.14385 7.81581 5.00819 11.4918 1.72324C15.1532 5.00819 19.6633 5.14385 21.4722 5.04695C21.6759 9.98891 21.642 16.4958 19.4499 19.4998ZM15.7206 10.2554C15.7912 10.3192 15.8485 10.3963 15.8891 10.4823C15.9298 10.5683 15.953 10.6615 15.9575 10.7565C15.962 10.8515 15.9477 10.9464 15.9154 11.0359C15.883 11.1253 15.8333 11.2075 15.7691 11.2777L10.8322 16.6945C10.7644 16.7672 10.6827 16.8257 10.5919 16.8665C10.5012 16.9073 10.4031 16.9295 10.3036 16.9319C10.2066 16.9312 10.1108 16.9111 10.0217 16.8728C9.93254 16.8345 9.85199 16.7788 9.78474 16.709L7.23871 14.1121C7.10366 13.9739 7.02907 13.7878 7.03134 13.5948C7.03362 13.4017 7.11257 13.2174 7.25083 13.0825C7.3891 12.9476 7.57535 12.873 7.76861 12.8753C7.96188 12.8776 8.14632 12.9565 8.28137 13.0946L10.2842 15.144L14.7022 10.299C14.8324 10.1599 15.012 10.0773 15.2025 10.0692C15.393 10.061 15.579 10.1279 15.7206 10.2554Z" fill="white"/>
</svg>
