<svg width="25" height="33" viewBox="0 0 25 33" fill="none" xmlns="http://www.w3.org/2000/svg">
<path d="M12.8285 19.1496C14.5037 19.1497 16.1413 18.6531 17.5342 17.7225C18.9271 16.7919 20.0128 15.4692 20.6539 13.9216C21.295 12.374 21.4628 10.671 21.1361 9.02799C20.8094 7.385 20.0028 5.8758 18.8183 4.69124C17.6338 3.50668 16.1247 2.69997 14.4817 2.37312C12.8387 2.04627 11.1357 2.21396 9.58807 2.85499C8.04041 3.49602 6.7176 4.58159 5.78692 5.97443C4.85623 7.36727 4.35948 9.00482 4.35948 10.68C4.36198 12.9254 5.25503 15.0781 6.84273 16.666C8.43043 18.2538 10.5831 19.147 12.8285 19.1496ZM12.8285 3.39029C14.2705 3.39017 15.6801 3.81766 16.879 4.61868C18.078 5.4197 19.0125 6.55828 19.5644 7.89043C20.1162 9.22258 20.2606 10.6885 19.9794 12.1027C19.6981 13.5169 19.0037 14.816 17.9841 15.8356C16.9645 16.8552 15.6655 17.5495 14.2512 17.8308C12.837 18.1121 11.3711 17.9676 10.039 17.4158C8.70684 16.8639 7.56826 15.9294 6.76724 14.7305C5.96622 13.5315 5.53874 12.1219 5.53885 10.68C5.54119 8.74735 6.30996 6.89455 7.67654 5.52798C9.04311 4.1614 10.8959 3.39263 12.8285 3.39029ZM9.12355 10.2513C9.03409 10.1757 8.96918 10.0751 8.9371 9.96247C8.90501 9.84982 8.9072 9.73016 8.94338 9.61876C8.97957 9.50736 9.04811 9.40926 9.14027 9.33696C9.23243 9.26467 9.34403 9.22146 9.46085 9.21284L11.5076 9.06247L12.2825 7.16251C12.3267 7.05399 12.4023 6.96112 12.4996 6.89574C12.5968 6.83036 12.7114 6.79544 12.8285 6.79544C12.9457 6.79544 13.0603 6.83036 13.1575 6.89574C13.2548 6.96112 13.3303 7.05399 13.3746 7.16251L14.1494 9.06247L16.1962 9.21284C16.313 9.22146 16.4246 9.26467 16.5168 9.33696C16.609 9.40926 16.6775 9.50736 16.7137 9.61876C16.7499 9.73016 16.7521 9.84982 16.72 9.96247C16.6879 10.0751 16.623 10.1757 16.5335 10.2513L14.9661 11.5751L15.4562 13.5683C15.4843 13.6822 15.4777 13.8019 15.4374 13.9121C15.3971 14.0222 15.3248 14.1179 15.2299 14.1868C15.1349 14.2557 15.0215 14.2947 14.9043 14.2988C14.787 14.3029 14.6712 14.2719 14.5717 14.2098L12.8285 13.1284L11.0848 14.2098C10.9853 14.2719 10.8695 14.3029 10.7522 14.2988C10.635 14.2947 10.5216 14.2557 10.4266 14.1868C10.3316 14.1179 10.2594 14.0222 10.2191 13.9121C10.1788 13.8019 10.1722 13.6822 10.2003 13.5683L10.6903 11.5751L9.12355 10.2513ZM24.578 26.993C22.2762 24.5966 20.7056 21.5934 20.0504 18.3359C21.5889 16.8887 22.6571 15.0126 23.1165 12.951C23.5759 10.8894 23.4054 8.73733 22.627 6.77381C21.8486 4.8103 20.4983 3.12592 18.7511 1.93908C17.0039 0.752236 14.9404 0.117676 12.8282 0.117676C10.7161 0.117676 8.65261 0.752236 6.90542 1.93908C5.15822 3.12592 3.80788 4.8103 3.0295 6.77381C2.25111 8.73733 2.08057 10.8894 2.53999 12.951C2.99942 15.0126 4.06761 16.8887 5.60608 18.3359C4.94526 21.5917 3.3752 24.5937 1.07788 26.9936C0.993388 27.0697 0.932694 27.1686 0.903114 27.2784C0.873534 27.3882 0.87633 27.5042 0.911164 27.6125C0.945999 27.7207 1.01139 27.8166 1.09945 27.8885C1.18752 27.9604 1.2945 28.0054 1.40752 28.0179C3.15064 28.231 4.91941 28.011 6.55724 27.3775C6.44492 28.8106 6.1103 30.2175 5.56539 31.5478C5.52924 31.6369 5.51555 31.7335 5.52553 31.8292C5.53551 31.9248 5.56884 32.0166 5.62261 32.0963C5.67637 32.176 5.74891 32.2413 5.83384 32.2865C5.91877 32.3316 6.0135 32.3551 6.10967 32.355C6.17757 32.3551 6.24498 32.3435 6.30898 32.3208C8.74143 31.5778 10.9292 29.7262 12.8285 26.8403C14.7197 29.7138 16.8974 31.5607 19.3151 32.3102C19.388 32.3418 19.4667 32.3581 19.5462 32.358C19.6459 32.3582 19.744 32.333 19.8312 32.2847C19.9184 32.2364 19.9918 32.1665 20.0444 32.0819C20.0971 31.9972 20.1272 31.9005 20.132 31.801C20.1367 31.7014 20.116 31.6023 20.0716 31.513L20.0775 31.51C19.5411 30.191 19.2117 28.7971 19.101 27.3775C20.7385 28.0115 22.5072 28.2315 24.2502 28.0179C24.3632 28.0054 24.4703 27.9604 24.5584 27.8884C24.6465 27.8164 24.7119 27.7204 24.7467 27.6121C24.7815 27.5037 24.7842 27.3876 24.7544 27.2778C24.7247 27.1679 24.6639 27.069 24.5792 26.993H24.578ZM3.46729 10.6817C3.4656 9.11662 3.85636 7.57606 4.60383 6.20096C5.35129 4.82585 6.43161 3.66011 7.74595 2.81034C9.0603 1.96058 10.5667 1.45392 12.1275 1.3367C13.6882 1.21949 15.2534 1.49546 16.6799 2.13938C18.1065 2.7833 19.3488 3.77462 20.2932 5.02265C21.2377 6.27069 21.8542 7.73561 22.0863 9.28342C22.3184 10.8312 22.1587 12.4126 21.6218 13.8827C21.085 15.3529 20.1881 16.665 19.0132 17.699C18.9966 17.7137 18.9807 17.7297 18.9648 17.7468C17.2613 19.2228 15.0828 20.0353 12.8288 20.0353C10.5748 20.0353 8.39636 19.2228 6.69287 17.7468C6.68638 17.7391 6.67871 17.7326 6.67164 17.7255C6.66279 17.7167 6.65395 17.7067 6.64392 17.6984C5.64606 16.8219 4.84658 15.7426 4.29881 14.5327C3.75103 13.3228 3.46756 12.0099 3.46729 10.6817ZM7.10859 30.7269C7.56826 29.3338 7.77924 27.8707 7.73189 26.4045C7.72531 26.3028 7.69244 26.2044 7.63651 26.1192C7.58058 26.0339 7.50349 25.9646 7.41277 25.918C7.32205 25.8714 7.2208 25.8492 7.11891 25.8534C7.01703 25.8577 6.91798 25.8883 6.83144 25.9422C5.5793 26.5982 4.18309 26.9308 2.76969 26.9099C4.61559 24.6609 5.9313 22.025 6.61916 19.198C7.6173 19.9233 8.735 20.4678 9.92139 20.8066C10.4905 22.5222 11.2336 24.1751 12.1392 25.7394C10.6314 28.1612 8.94428 29.8294 7.10859 30.7269ZM18.8298 25.9434C18.7433 25.889 18.6442 25.8581 18.5421 25.8536C18.4401 25.849 18.3386 25.8711 18.2476 25.9176C18.1567 25.9641 18.0793 26.0334 18.0232 26.1188C17.9671 26.2041 17.9342 26.3026 17.9275 26.4045C17.8749 27.871 18.0852 29.3351 18.5485 30.7275C16.6367 29.7934 14.8848 28.0315 13.3327 25.4486C12.5106 24.0628 11.8184 22.604 11.2647 21.0909C12.6213 21.305 14.0068 21.2479 15.3412 20.923C16.6755 20.5981 17.9322 20.0118 19.0385 19.198C19.7262 22.0252 21.0421 24.6611 22.8886 26.9099C21.4759 26.9302 20.0805 26.5981 18.8286 25.9434H18.8298Z" fill="white"/>
</svg>
