<svg width="90" height="50" viewBox="0 0 90 50" fill="none" xmlns="http://www.w3.org/2000/svg">
<path d="M85.2086 1.94009H86.5568C86.7288 1.93475 86.9009 1.94335 87.0714 1.96581C87.1673 1.98823 87.2605 2.02102 87.3493 2.06359C87.4915 2.13947 87.6079 2.25589 87.6838 2.39808C87.7656 2.55689 87.8046 2.73424 87.797 2.91269C87.8013 3.08062 87.7585 3.2464 87.6735 3.39129C87.587 3.5285 87.4641 3.63896 87.3185 3.71034C87.4354 3.7409 87.5386 3.80975 87.6118 3.9059C87.6848 4.0472 87.7203 4.20492 87.7147 4.36389L87.761 4.94025C87.7651 5.03273 87.7806 5.12435 87.8073 5.21299L87.9154 5.34165V5.43427H87.3648C87.3105 5.28409 87.2827 5.12567 87.2824 4.96599L87.2516 4.51827C87.2631 4.35446 87.2115 4.19245 87.1075 4.06543C86.9095 3.9692 86.688 3.93169 86.4694 3.95735H85.7129V5.44973H85.2343L85.2086 1.94009ZM85.682 2.35177V3.52508H86.4848C86.701 3.54779 86.9185 3.49703 87.1023 3.38099C87.1666 3.32227 87.2164 3.24939 87.2477 3.16811C87.2789 3.08683 87.2908 2.99937 87.2824 2.91269C87.2908 2.83154 87.2798 2.74956 87.2503 2.67351C87.2208 2.59745 87.1736 2.5295 87.1126 2.47527C86.9174 2.37552 86.698 2.33273 86.4796 2.35177H85.682ZM89.4335 3.64859C89.4386 4.26034 89.2619 4.85982 88.9257 5.37095C88.5895 5.88209 88.1091 6.28185 87.5454 6.51949C86.9817 6.75714 86.36 6.82197 85.7594 6.70575C85.1588 6.58953 84.6062 6.2975 84.1718 5.86673C83.7374 5.43596 83.4408 4.88585 83.3195 4.28622C83.1983 3.68658 83.2579 3.06444 83.4909 2.49875C83.7238 1.93305 84.1195 1.4493 84.6278 1.10887C85.1361 0.768445 85.7341 0.586683 86.3458 0.586662C87.1603 0.586634 87.9418 0.90841 88.5201 1.4819C89.0984 2.0554 89.4267 2.83416 89.4335 3.64859ZM86.3458 0C85.6242 0 84.9188 0.213988 84.3188 0.614899C83.7188 1.01581 83.2512 1.58565 82.975 2.25234C82.6989 2.91903 82.6266 3.65263 82.7674 4.36039C82.9082 5.06814 83.2557 5.71826 83.7659 6.22852C84.2762 6.73878 84.9263 7.08628 85.634 7.22707C86.3418 7.36785 87.0754 7.29559 87.7421 7.01943C88.4088 6.74328 88.9786 6.27563 89.3795 5.67562C89.7804 5.07561 89.9944 4.37021 89.9944 3.64859C89.9944 2.68093 89.61 1.75289 88.9258 1.06865C88.2415 0.384411 87.3135 0 86.3458 0Z" fill="white"/>
<path d="M90 24.7733C90 38.4413 69.8479 49.5363 44.9871 49.5363C20.1264 49.5363 0 38.4413 0 24.7733C0 11.1053 20.147 0 45.0077 0C69.8685 0 90 11.0898 90 24.7733Z" fill="white"/>
<path d="M17.4714 9.35572C13.6169 11.3009 10.7814 13.5498 9.02148 15.9427C14.7388 9.7674 27.6092 6.0931 45.003 6.0931C62.3967 6.0931 75.2671 9.79313 80.9793 15.9427C79.2296 13.5498 76.389 11.3112 72.5345 9.35572C65.222 5.67626 55.4444 3.64355 45.003 3.64355C34.5615 3.64355 24.784 5.70199 17.4714 9.35572Z" fill="#2F6DB2"/>
<path d="M17.5287 22.164C17.225 22.3132 17.0964 22.6786 17.0964 23.1932V30.3977C17.0964 31.0307 16.731 31.3394 16.026 31.3394C15.321 31.3394 14.7755 31.1645 14.5131 30.8248L12.5987 28.2518L9.81467 24.5517V29.1832C9.78571 29.3921 9.81565 29.6049 9.90112 29.7976C9.98658 29.9904 10.1242 30.1554 10.2984 30.2742C10.6072 30.4852 10.7821 30.6396 10.7821 30.8197C10.7821 31.149 10.4528 31.3343 9.81467 31.3343H8.38406C7.72536 31.3343 7.39087 31.1593 7.39087 30.8197C7.39087 30.6447 7.54525 30.4852 7.8746 30.2742C8.05319 30.158 8.19592 29.9945 8.28681 29.8018C8.3777 29.6091 8.41315 29.3949 8.38921 29.1832V23.5483C8.42064 23.2901 8.38287 23.0283 8.27979 22.7896C8.1767 22.5508 8.012 22.3438 7.80256 22.1897C7.39601 21.9581 7.19531 21.7832 7.19531 21.6751C7.19531 21.248 7.47835 21.0112 8.05986 21.0112H10.7513C10.9676 21.0073 11.1813 21.0587 11.3722 21.1604C11.5631 21.2622 11.7249 21.411 11.8422 21.5927L12.6141 22.622L15.6503 26.6719H15.7018V23.2343C15.7196 23.0342 15.6902 22.8326 15.616 22.6458C15.5418 22.4591 15.4249 22.2923 15.2747 22.1588C14.9659 21.9581 14.8115 21.8037 14.8115 21.6802C14.8115 21.2428 15.1151 21.037 15.7018 21.037H17.1118C17.6985 21.037 18.0073 21.2428 18.0073 21.6802C18.0073 21.8603 17.8477 22.0353 17.539 22.1948L17.5287 22.164ZM34.9379 30.8197C34.5213 31.1807 33.9805 31.3653 33.4301 31.3343H33.2757C32.8967 31.3343 32.5254 31.2271 32.2049 31.0249C31.8843 30.8227 31.6275 30.5339 31.4643 30.1919C30.1965 27.969 29.2439 25.5806 28.6339 23.0954C28.6173 22.9831 28.5844 22.8739 28.5362 22.7712C28.4487 22.6425 28.3818 22.4882 28.2531 22.2978C28.0979 22.0748 27.9845 21.8254 27.9186 21.5619C27.9186 21.2582 28.1142 21.0781 28.5362 21.0473C28.5977 21.0208 28.665 21.0102 28.7317 21.0164H31.9017C32.4884 21.0164 32.7971 21.2222 32.7971 21.6596C32.7971 21.8398 32.6633 22.0147 32.3803 22.1743C32.0972 22.3338 31.9737 22.5293 31.9737 22.7403C31.9737 23.2549 32.4575 24.5981 33.4249 26.7646C33.7337 27.4233 34.0682 28.1694 34.4542 28.9877C35.787 25.9 36.456 23.9136 36.456 22.9719C36.4372 22.8184 36.3802 22.672 36.2903 22.5462C36.2004 22.4204 36.0805 22.319 35.9414 22.2514C35.5863 22.025 35.4268 21.7934 35.4268 21.5824C35.4268 21.2068 35.8282 21.0009 36.6721 21.0009H37.6705C37.976 20.995 38.2804 21.0403 38.571 21.1347C38.6766 21.1752 38.7682 21.2453 38.8348 21.3366C38.9015 21.4279 38.9403 21.5365 38.9467 21.6493C38.9461 21.7636 38.9153 21.8756 38.8574 21.9741C38.7996 22.0726 38.7168 22.1541 38.6173 22.2103L38.5659 22.2566C38.4117 22.355 38.2941 22.5015 38.2314 22.6734C36.6704 27.3701 35.5726 30.0752 34.9379 30.7888V30.8197ZM52.6816 18.2529C52.4632 18.4242 52.2919 18.6482 52.1839 18.9038C52.0759 19.1595 52.0346 19.4384 52.0641 19.7144V29.9654C52.1028 30.347 52.0238 30.7313 51.8377 31.0667C51.4492 31.3079 50.9888 31.4062 50.5357 31.3446C50.1181 31.3751 49.6983 31.3561 49.2852 31.288C49.0864 31.2393 48.8995 31.1509 48.7359 31.0279C48.5722 30.905 48.4352 30.7501 48.3332 30.5727L44.7927 25.7096L41.88 21.6391H41.8285V28.2827C41.8008 28.5828 41.8495 28.8851 41.97 29.1613C42.0906 29.4375 42.2792 29.6788 42.5181 29.8625C43.007 30.197 43.2385 30.444 43.2385 30.6396C43.2385 31.1079 42.7239 31.3394 41.8285 31.3394H39.8112C39.3739 31.3931 38.9322 31.2831 38.571 31.0307C38.5098 30.9866 38.4611 30.9273 38.4295 30.8588C38.398 30.7903 38.3847 30.7148 38.3909 30.6396C38.3938 30.5687 38.4113 30.4993 38.4423 30.4355C38.4733 30.3717 38.5171 30.3151 38.571 30.269C38.7184 30.0926 38.8919 29.9399 39.0856 29.8162C39.3304 29.645 39.5251 29.4118 39.6499 29.1405C39.7747 28.8692 39.8251 28.5696 39.7958 28.2724V20.1981C39.7958 19.277 39.5179 18.6543 38.9518 18.3301C38.8102 18.2573 38.6758 18.1711 38.5505 18.0728C38.2623 17.8721 38.1336 17.728 38.1336 17.5582C38.1207 17.403 38.1533 17.2473 38.2273 17.1103C38.3013 16.9732 38.4136 16.8606 38.5505 16.7863C38.7994 16.6521 39.0814 16.5914 39.3635 16.6113H43.0584C43.3759 16.6038 43.6898 16.6798 43.9688 16.8314C44.2478 16.9831 44.4822 17.2053 44.6486 17.4759L44.7721 17.6354L50.0005 24.7318H50.0262V19.7299C50.0563 19.4543 50.0159 19.1757 49.9087 18.92C49.8016 18.6644 49.6313 18.4402 49.4139 18.2684C49.0073 17.9596 48.8066 17.6766 48.8066 17.4707C48.8066 16.8892 49.2132 16.6062 50.0262 16.6062H52.0435C52.2512 16.5769 52.4629 16.5996 52.6596 16.6724C52.8563 16.7451 53.0319 16.8656 53.1705 17.023C53.2512 17.1603 53.2938 17.3166 53.294 17.4759C53.2848 17.592 53.2419 17.7029 53.1705 17.7949C53.0237 17.9791 52.8502 18.1404 52.6559 18.2735L52.6816 18.2529ZM62.0784 31.0358C61.9703 31.2417 61.6204 31.3086 61.0492 31.3086H53.9321C53.5719 31.3086 53.3197 31.2622 53.1962 31.113C53.1158 31.0322 53.0697 30.9234 53.0676 30.8094C53.0713 30.6708 53.1161 30.5365 53.1962 30.4234C53.2553 30.3332 53.3324 30.2561 53.4227 30.197C53.531 30.1544 53.6239 30.0799 53.6891 29.9835C53.7544 29.887 53.7888 29.7731 53.788 29.6567V22.7557C53.7819 22.6274 53.7457 22.5022 53.6822 22.3905C53.6187 22.2787 53.5298 22.1835 53.4227 22.1125C53.3333 22.0502 53.2564 21.9717 53.1962 21.8809C53.1254 21.7842 53.0811 21.6707 53.0676 21.5516C53.0702 21.43 53.1158 21.3134 53.1962 21.2222C53.4081 21.0658 53.6699 20.9926 53.9321 21.0164H60.8536C61.6461 21.0164 62.0527 21.2943 62.0527 21.8397V22.4882C62.0527 23.08 61.8211 23.3681 61.3837 23.3681C61.0734 23.2407 60.7956 23.0456 60.5706 22.7969C59.9617 22.399 59.2366 22.2177 58.5121 22.2823C58.2555 22.277 57.999 22.2942 57.7454 22.3338C57.6463 22.3534 57.5509 22.3881 57.4623 22.4367C57.2771 22.5653 57.2153 22.869 57.2153 23.3836V25.0612H58.9135C59.2666 25.065 59.6133 24.9668 59.9119 24.7782C60.063 24.6507 60.2379 24.5545 60.4265 24.4951C60.8073 24.4951 61.0131 24.912 61.0131 25.7302C61.0131 26.5484 60.8073 27.0167 60.4265 27.0167C60.2364 26.9663 60.0603 26.873 59.9119 26.744C59.6231 26.5315 59.2719 26.4211 58.9135 26.4301H57.2153V28.6017C57.2153 29.2398 57.308 29.6309 57.4829 29.8059C57.5601 29.8522 57.6425 29.9037 57.7454 29.9551C58.0791 30.0543 58.4266 30.0994 58.7746 30.0889C59.5057 30.1224 60.2236 29.8862 60.7919 29.4251C61.0519 29.1677 61.3506 28.9524 61.677 28.787C61.7739 28.7743 61.8725 28.7841 61.965 28.8156C62.0576 28.8471 62.1416 28.8994 62.2108 28.9685C62.2799 29.0376 62.3322 29.1217 62.3637 29.2143C62.3951 29.3068 62.4049 29.4054 62.3923 29.5023C62.4181 30.0367 62.3046 30.5687 62.0629 31.0461L62.0784 31.0358ZM72.0515 30.8917C71.9434 31.0976 71.5832 31.2005 71.0223 31.2005H63.8641C63.2517 31.2005 62.9687 30.9998 62.9687 30.6035C62.9807 30.4778 63.0224 30.3567 63.0904 30.2502C63.1584 30.1438 63.2507 30.055 63.3598 29.9912C63.6119 29.8007 63.7354 29.6361 63.7354 29.4765V22.5448C63.7285 22.4195 63.6905 22.298 63.6249 22.1911C63.5594 22.0842 63.4682 21.9953 63.3598 21.9324C63.0973 21.7265 62.9687 21.5464 62.9687 21.3457C62.9687 21.0112 63.2517 20.8311 63.8641 20.8311H70.8319C71.6192 20.8311 72.0258 21.1245 72.0258 21.6751V22.3698C72.0258 22.8844 71.7942 23.1571 71.3105 23.1571C70.9927 23.041 70.6995 22.8665 70.4459 22.6425C69.8608 22.2457 69.1599 22.0556 68.4544 22.1022C68.1961 22.0987 67.938 22.1159 67.6825 22.1537C67.5841 22.1595 67.4894 22.1934 67.4097 22.2514C67.2811 22.3544 67.2142 22.6425 67.2142 23.1469V24.8811H68.9021C69.2392 24.8791 69.5689 24.7828 69.8541 24.6032C70.0138 24.4571 70.2061 24.3512 70.4151 24.2944C70.8473 24.2944 71.048 24.7319 71.048 25.5964C71.048 26.4609 70.8473 26.8778 70.4151 26.8778C70.2062 26.8355 70.0156 26.7294 69.8696 26.5742C69.5991 26.35 69.2524 26.2394 68.9021 26.2654H67.2245V28.4525C67.1741 28.87 67.2608 29.2927 67.4715 29.6567C67.5414 29.7074 67.6154 29.7521 67.6928 29.7905C68.0391 29.8659 68.3934 29.8988 68.7477 29.8882C69.491 29.9462 70.2281 29.7158 70.8062 29.245C71.2796 28.8076 71.5626 28.6069 71.6604 28.6069C72.175 28.6069 72.4323 28.8436 72.4323 29.3273C72.4747 29.863 72.3602 30.3994 72.103 30.8711L72.0515 30.8917ZM82.1276 23.5688C81.9217 23.5688 81.6696 23.3681 81.3351 22.9307C81.2048 22.7375 81.0294 22.5789 80.824 22.4686C80.6187 22.3583 80.3896 22.2997 80.1566 22.2978C79.8067 22.2978 79.642 22.4676 79.642 22.8535V29.5434C79.6425 29.6721 79.6795 29.7979 79.7488 29.9063C79.818 30.0147 79.9166 30.1013 80.0331 30.1558C80.1254 30.2121 80.2051 30.2868 80.2671 30.3754C80.3291 30.464 80.3721 30.5644 80.3933 30.6704C80.3933 31.0564 80.1154 31.2365 79.4979 31.2365H76.3845C75.7927 31.2365 75.4942 31.0564 75.4942 30.6704C75.4993 30.5468 75.5372 30.4268 75.6042 30.3228C75.6711 30.2187 75.7646 30.1344 75.875 30.0786C75.9834 30.0272 76.0764 29.9484 76.145 29.8501C76.2136 29.7517 76.2554 29.6372 76.2662 29.5177V22.8278C76.2662 22.4418 76.086 22.272 75.7515 22.272C75.526 22.2829 75.3061 22.3457 75.1088 22.4554C74.9116 22.5652 74.7423 22.7191 74.6143 22.905C74.254 23.3476 73.9967 23.5431 73.7857 23.5431C73.3277 23.5431 73.0704 23.2909 73.0704 22.73C73.034 22.199 73.1693 21.6704 73.4564 21.2222C73.5593 21.0524 73.8423 20.9649 74.3209 20.9649H81.5769C82.0555 20.9649 82.3437 21.0473 82.4466 21.2222C82.7098 21.68 82.8399 22.2022 82.8223 22.73C82.8223 23.2909 82.5856 23.5431 82.1121 23.5431L82.1276 23.5688ZM28.531 31.1748C28.4384 31.1968 28.3431 31.2055 28.248 31.2005H25.3867C24.7692 31.2005 24.4965 31.0204 24.4965 30.6859C24.5132 30.5208 24.5946 30.3691 24.7229 30.2639C24.8773 30.1301 24.9751 30.0323 25.0059 30.0066C24.7486 29.142 24.5737 28.4988 24.4913 28.0974H20.992C20.8007 28.6297 20.6544 29.1771 20.5546 29.7338C20.5546 29.8676 20.6884 29.986 20.9199 30.1661C21.0215 30.2104 21.1089 30.2819 21.1725 30.3727C21.236 30.4635 21.2733 30.5701 21.2802 30.6807C21.2802 31.0255 20.992 31.1954 20.4311 31.1954H18.8872C18.4241 31.1954 18.1925 31.0152 18.1925 30.6807C18.205 30.569 18.2468 30.4626 18.3137 30.3722C18.3806 30.2819 18.4701 30.2108 18.5733 30.1661C18.8049 29.986 18.9335 29.8831 18.9335 29.8213C19.7298 27.2849 20.6855 24.8012 21.7948 22.3852C21.9405 21.9849 22.1644 21.6175 22.4535 21.3046C22.7889 21.1239 23.1704 21.0469 23.5496 21.0833H23.6474C23.9978 21.0522 24.3507 21.1051 24.6766 21.2377C24.8618 21.3046 25.0883 21.6133 25.3713 22.1279C25.5926 22.5036 26.1587 23.8416 27.085 26.111C28.0113 28.3804 28.4281 29.5795 28.459 29.7647L28.5207 29.9191C28.5786 30.0409 28.6768 30.1391 28.7986 30.197C28.892 30.2466 28.9701 30.3207 29.0245 30.4114C29.0789 30.5021 29.1076 30.6059 29.1074 30.7116C29.1074 31.0101 28.8964 31.1593 28.5207 31.2262L28.531 31.1748ZM22.7468 23.5997L21.4191 26.7594H23.9922L23.6577 25.9257L22.7468 23.5997Z" fill="#2F6DB2"/>
</svg>
