<svg width="205" height="42" viewBox="0 0 205 42" fill="none" xmlns="http://www.w3.org/2000/svg">
<path d="M101.931 31.7786C101.931 30.8368 101.931 29.9493 101.961 29.116C101.974 28.3148 101.926 27.5136 101.818 26.7197C101.711 25.9389 101.49 25.178 101.162 24.4614C100.777 23.6363 100.268 22.8747 99.6533 22.2031C99.2539 21.7791 98.8348 21.3846 98.4108 21C97.9867 20.6154 97.5183 20.2752 97.0351 19.935L89.856 14.7725C89.2629 14.3882 88.7422 13.9025 88.3176 13.3377C87.9768 12.861 87.7492 12.313 87.6519 11.7352C87.5477 11.0351 87.5031 10.3275 87.5188 9.61991C87.4945 8.89797 87.5877 8.17689 87.7949 7.4849C87.9598 6.92156 88.3244 6.43769 88.8205 6.12402C89.4476 5.76939 90.1619 5.59851 90.8816 5.63095C91.6189 5.57588 92.3553 5.74796 92.9919 6.12402C93.4639 6.46929 93.7949 6.97371 93.9238 7.54407C94.0829 8.24745 94.1525 8.96811 94.1309 9.68894V11.7944H101.527C101.527 11.0498 101.527 11.0547 101.576 10.256C101.626 9.45719 101.576 8.63869 101.517 7.83991C101.465 7.06338 101.316 6.29642 101.073 5.55698C100.73 4.58654 100.193 3.69585 99.4955 2.93877C98.8269 2.23255 98.0348 1.65439 97.1584 1.23274C96.2603 0.795039 95.3088 0.47677 94.3281 0.286038C93.3201 0.0965382 92.2967 0.000801026 91.2711 5.46805e-05C90.2879 -0.00243428 89.3063 0.0800514 88.3373 0.246591C87.3559 0.40681 86.3963 0.679808 85.4775 1.06016C84.582 1.41845 83.7497 1.91785 83.0121 2.53938C82.2598 3.17974 81.6458 3.96656 81.2075 4.85189C80.9521 5.39772 80.757 5.96978 80.6256 6.55792C80.4816 7.18797 80.3811 7.82719 80.3249 8.47105C80.2657 9.12683 80.241 9.74811 80.241 10.3447C80.2142 11.5537 80.3283 12.7616 80.5813 13.9442C80.8126 14.963 81.2323 15.9296 81.8189 16.7941C82.5157 17.7752 83.3454 18.6547 84.2842 19.4074C84.4128 19.5062 84.5363 19.6115 84.6541 19.723L85.0239 20.0385L92.0304 24.9101C92.6669 25.3093 93.2347 25.8089 93.7118 26.3893C94.0769 26.8826 94.3248 27.4525 94.4366 28.0559C94.5631 28.795 94.6159 29.5449 94.5944 30.2944C94.5944 31.039 94.5944 31.7737 94.5648 32.459C94.5466 33.1093 94.4285 33.7529 94.2147 34.3672C94.0169 34.9276 93.6344 35.4041 93.13 35.7183C92.4461 36.0948 91.6711 36.274 90.8914 36.236C90.3941 36.2728 89.8945 36.2078 89.4231 36.0451C88.9518 35.8823 88.5186 35.6251 88.1499 35.2893C87.5031 34.53 87.1792 33.5478 87.2476 32.5527C87.2476 31.6159 87.2476 30.684 87.2772 29.7521C87.3068 28.8202 87.3068 27.8833 87.3068 26.9465H79.96V32.7845C79.9236 34.2794 80.2218 35.7636 80.8327 37.1284C81.3675 38.2545 82.1888 39.2203 83.2143 39.9291C84.2844 40.6607 85.487 41.1765 86.7545 41.4478C88.1881 41.7687 89.6543 41.9209 91.1232 41.9014C93.2032 41.9768 95.2768 41.6278 97.2176 40.8758C98.7623 40.2313 100.028 39.0586 100.787 37.5673C101.566 36.0881 101.946 34.1158 101.946 31.7046L101.931 31.7786ZM124.79 33.1296V29.8408H118.05V33.1839C118.059 33.7897 118.003 34.3947 117.882 34.9885C117.777 35.5168 117.51 35.9993 117.118 36.3691C116.649 36.7662 116.045 36.966 115.432 36.9263C114.794 36.9728 114.162 36.7695 113.671 36.3592C113.28 35.9756 113.016 35.482 112.912 34.9441C112.794 34.3484 112.74 33.7418 112.749 33.1346V20.576C112.748 20.4799 112.739 20.3842 112.72 20.29C112.703 20.1972 112.693 20.1032 112.69 20.0089C112.686 19.4456 112.782 18.8861 112.976 18.3572C113.144 17.872 113.453 17.448 113.864 17.1393C114.334 16.8052 114.899 16.6323 115.476 16.6462C116.011 16.6218 116.541 16.7611 116.995 17.0456C117.384 17.3078 117.68 17.6855 117.843 18.1254C118.021 18.62 118.106 19.1432 118.094 19.6687V23.4112H124.761V19.9596C124.764 19.3668 124.735 18.7741 124.672 18.1846C124.613 17.589 124.47 17.0047 124.248 16.449C123.905 15.613 123.383 14.8623 122.719 14.2499C122.08 13.6579 121.345 13.1793 120.545 12.8347C119.724 12.4822 118.863 12.2306 117.981 12.0853C117.097 11.9328 116.201 11.8569 115.303 11.8585C113.616 11.8204 111.943 12.1696 110.412 12.8791C109.064 13.5199 107.939 14.5505 107.183 15.8376C106.364 17.3205 105.958 18.9962 106.009 20.6894V33.5537C105.939 35.2479 106.348 36.9275 107.187 38.4006C107.953 39.6413 109.097 40.6026 110.452 41.1421C112.051 41.7522 113.755 42.0388 115.466 41.9852C117.185 42.0318 118.894 41.7124 120.481 41.0484C121.824 40.4525 122.939 39.4369 123.656 38.154C124.434 36.6302 124.813 34.9335 124.756 33.2233L124.79 33.1296ZM146.801 33.9037V19.9498C146.872 18.3093 146.473 16.6825 145.652 15.2607C144.908 14.0775 143.804 13.1648 142.501 12.6572C140.982 12.0856 139.366 11.8127 137.743 11.8535C136.101 11.8179 134.469 12.1096 132.941 12.7115C131.615 13.2504 130.494 14.1966 129.741 15.4135C128.914 16.841 128.508 18.4738 128.572 20.1224V33.2085C128.572 33.8396 128.572 34.4708 128.651 35.1266C128.701 35.7659 128.828 36.3967 129.031 37.0052C129.393 38.1085 130.033 39.1001 130.889 39.8847C131.701 40.6173 132.661 41.1657 133.705 41.4921C134.812 41.8325 135.964 41.9988 137.122 41.9852C138.401 42.0008 139.677 41.8651 140.924 41.5809C142.026 41.3328 143.07 40.8759 144 40.2348C144.893 39.5942 145.602 38.7305 146.056 37.73C146.582 36.5191 146.838 35.2085 146.806 33.889L146.801 33.9037ZM140.1 34.4954C140.105 34.9653 140.035 35.433 139.893 35.881C139.759 36.2901 139.509 36.6516 139.173 36.9213C138.783 37.2095 138.306 37.3541 137.822 37.3306C137.472 37.3571 137.121 37.3014 136.796 37.1678C136.472 37.0342 136.183 36.8266 135.953 36.5614C135.535 35.9922 135.329 35.2943 135.372 34.5891V18.9341C135.368 18.4635 135.448 17.996 135.608 17.5534C135.763 17.1322 136.027 16.7596 136.372 16.4736C136.752 16.1751 137.226 16.0213 137.709 16.0397C138.273 15.9996 138.832 16.1759 139.272 16.5328C139.619 16.8703 139.857 17.3052 139.952 17.7803C140.06 18.3058 140.111 18.8414 140.105 19.3778L140.1 34.4954ZM164.882 18.5741V11.9078C163.895 11.8786 162.911 12.0289 161.978 12.3515C161.193 12.6496 160.486 13.1197 159.907 13.7272C159.249 14.4463 158.681 15.2427 158.216 16.0989L158.275 12.4156H151.49V42H158.211V24.3135C158.21 24.1487 158.2 23.9841 158.181 23.8204C158.181 23.6478 158.151 23.4802 158.151 23.3273C158.134 22.4341 158.279 21.5452 158.58 20.7042C158.852 19.9574 159.35 19.3143 160.005 18.865C160.78 18.3777 161.685 18.1386 162.599 18.1797C162.988 18.1727 163.376 18.2057 163.758 18.2783C164.143 18.3566 164.518 18.4773 164.877 18.6382L164.882 18.5741ZM186.128 28.2137V20.1174C186.132 19.4291 186.081 18.7415 185.976 18.0613C185.878 17.3781 185.678 16.7134 185.384 16.089C184.91 15.1027 184.192 14.254 183.298 13.6237C182.4 12.9986 181.399 12.5378 180.34 12.2628C179.286 11.9805 178.201 11.838 177.11 11.8387C175.436 11.8022 173.773 12.1251 172.234 12.7854C170.876 13.3808 169.735 14.3792 168.965 15.6453C168.126 17.1052 167.711 18.77 167.766 20.4527V32.6316C167.712 34.404 168.048 36.1667 168.753 37.7941C169.385 39.1565 170.464 40.2627 171.81 40.93C173.473 41.6853 175.289 42.0432 177.115 41.9753C178.68 42.0132 180.238 41.7538 181.706 41.2111C182.988 40.7251 184.083 39.8468 184.837 38.7013C185.669 37.3373 186.075 35.7564 186.005 34.1601V31.8378H179.477C179.477 32.3308 179.477 32.8239 179.477 33.3909C179.473 33.9239 179.41 34.4547 179.29 34.9737C179.188 35.4471 178.946 35.8787 178.594 36.2113C178.128 36.5434 177.568 36.7178 176.996 36.7089C176.424 36.7001 175.869 36.5084 175.414 36.162C175.053 35.7888 174.816 35.3137 174.734 34.8011C174.629 34.2336 174.579 33.6573 174.586 33.0803V28.1496L186.128 28.2137ZM179.403 23.4555H174.546V20.1125C174.502 19.3745 174.695 18.6416 175.098 18.0219C175.336 17.7369 175.641 17.5149 175.985 17.3756C176.329 17.2363 176.702 17.1839 177.071 17.2231C177.404 17.1964 177.739 17.248 178.049 17.3738C178.359 17.4997 178.635 17.6963 178.856 17.9479C179.245 18.4928 179.439 19.1527 179.408 19.8216L179.403 23.4555ZM204.057 18.6382V11.9078C203.07 11.8787 202.086 12.029 201.152 12.3515C200.368 12.649 199.66 13.1192 199.081 13.7272C198.424 14.447 197.857 15.2433 197.39 16.0989L197.449 12.4156H190.684V42H197.405V24.3135C197.406 24.1488 197.397 23.9842 197.38 23.8204C197.362 23.6567 197.352 23.4921 197.351 23.3273C197.332 22.4344 197.475 21.5455 197.775 20.7042C198.047 19.9581 198.545 19.3153 199.2 18.865C199.974 18.3774 200.879 18.1383 201.793 18.1797C202.18 18.1727 202.567 18.2057 202.947 18.2783C203.334 18.3563 203.711 18.477 204.071 18.6382" fill="#2B2522"/>
<path d="M22.3313 6.09946V0.0741132H0V6.09946H7.39609V41.9853H14.8563V6.09946H22.3313ZM47.2315 32.5232V10.1377C47.2315 9.59535 47.2314 9.02831 47.1772 8.4317C47.1377 7.83243 47.0603 7.23626 46.9455 6.64678C46.8496 6.08278 46.6839 5.5329 46.4524 5.00977C46.0104 4.08892 45.3845 3.26835 44.6132 2.59864C43.8593 1.95933 43.0067 1.44646 42.0887 1.07998C41.1518 0.70603 40.176 0.438102 39.1796 0.281203C38.1766 0.123282 37.1625 0.0474267 36.1472 0.0543898C34.6762 0.0375415 33.2088 0.203163 31.7786 0.547463C30.5066 0.84718 29.3046 1.38962 28.2383 2.14502C27.2114 2.89589 26.392 3.89517 25.8567 5.04922C25.2487 6.43589 24.9509 7.93861 24.984 9.45236V32.6268C24.9463 34.1712 25.244 35.7054 25.8567 37.1236C26.3823 38.2758 27.2084 39.2654 28.2481 39.9884C29.3322 40.7251 30.5473 41.2473 31.8278 41.5267C33.2855 41.842 34.7743 41.9908 36.2655 41.9705C38.2143 42.0196 40.1561 41.7207 41.9999 41.0879C43.5734 40.5485 44.9274 39.5096 45.8558 38.1295C46.7729 36.7456 47.2413 34.8801 47.261 32.5331L47.2315 32.5232ZM39.7959 32.4246C39.871 33.4307 39.5548 34.4269 38.9133 35.2056C38.3266 35.8515 37.4045 36.1917 36.1521 36.1917C35.2901 36.2488 34.4339 36.0143 33.7213 35.526C33.1774 35.0861 32.8071 34.4677 32.6759 33.7806C32.4978 32.9715 32.4216 32.1432 32.4491 31.3152V11.8881H28.2777L36.1669 3.05227L44.0561 11.8881H39.8403V32.4542L39.7959 32.4246ZM74.311 15.8377V8.16544C74.3313 7.04117 74.2372 5.91774 74.03 4.81254C73.8695 3.89667 73.5147 3.02578 72.9896 2.25843C72.4715 1.53029 71.7516 0.969774 70.9187 0.646076C69.8391 0.230954 68.6873 0.0364694 67.5312 0.0741132H52.5862V41.9853H60.0513V23.4063H66.3183C66.7078 23.4063 67.1713 23.4063 67.694 23.3767C68.2166 23.3472 68.7393 23.3126 69.2521 23.2436C69.7067 23.1953 70.1547 23.0977 70.5883 22.9527C71.5298 22.6252 72.3557 22.0307 72.9649 21.2417C73.5056 20.5115 73.8747 19.6689 74.0448 18.7764C74.2231 17.8122 74.3057 16.8328 74.2913 15.8524L74.311 15.8377ZM66.9987 14.3732C67.0181 14.9607 66.9668 15.5484 66.8459 16.1236C66.7534 16.576 66.4992 16.9792 66.1309 17.2577C65.643 17.5705 65.0672 17.7175 64.489 17.6768H60.0513V6.00085H64.1537C64.5493 5.96507 64.948 6.01431 65.3231 6.14528C65.6981 6.27624 66.0408 6.4859 66.3282 6.76018C66.832 7.3998 67.0735 8.20722 67.0037 9.01845L66.9987 14.3732Z" fill="#E41018"/>
</svg>
