<svg width="106" height="52" viewBox="0 0 106 52" fill="none" xmlns="http://www.w3.org/2000/svg">
<g opacity="0.05">
<path d="M42.3528 27.1317C42.3528 28.0842 42.2823 29.0251 42.1647 29.9659C42.2117 29.6484 42.247 29.3426 42.294 29.0251C42.0353 30.895 41.5414 32.7061 40.8122 34.4466C40.9298 34.1644 41.0474 33.8821 41.165 33.5999C40.5535 35.0229 39.8008 36.3871 38.8953 37.6454C38.7894 37.7865 38.6954 37.9277 38.5895 38.057C38.2485 38.5157 39.0364 37.4925 38.7777 37.8218C38.5778 38.0688 38.3778 38.3158 38.1779 38.551C37.7663 39.0214 37.3312 39.48 36.8725 39.9152C36.4138 40.3503 35.9434 40.7619 35.4495 41.1618C35.0026 41.5263 36.0258 40.7266 35.6847 40.9854C35.5671 41.0677 35.4495 41.1618 35.3436 41.2441C35.0614 41.444 34.7792 41.6439 34.4969 41.8321C33.4267 42.526 32.3095 43.1258 31.1334 43.6197C31.4157 43.5021 31.6979 43.3845 31.9802 43.2669C30.2867 43.9725 28.5226 44.4547 26.6998 44.7134C27.0173 44.6664 27.3231 44.6311 27.6406 44.584C25.7472 44.831 23.842 44.8428 21.9486 44.6076C22.2661 44.6546 22.5719 44.6899 22.8894 44.7369C20.996 44.4782 19.1496 43.9843 17.3973 43.2434C17.6796 43.361 17.9618 43.4786 18.2441 43.5962C17.0092 43.067 15.8214 42.4201 14.7042 41.6675C14.4455 41.4911 14.1985 41.3147 13.9515 41.1383C13.3165 40.6678 14.3279 41.444 14.1162 41.2676C13.9751 41.15 13.8339 41.0442 13.6928 40.9266C13.1989 40.5149 12.7285 40.0798 12.2698 39.6329C11.8111 39.1743 11.3878 38.7039 10.9762 38.2099C10.8821 38.0923 10.7762 37.9747 10.6822 37.8571C10.2941 37.3867 11.2466 38.6333 10.8115 38.0218C10.6116 37.7513 10.4234 37.4808 10.2353 37.1985C9.48259 36.0813 8.83577 34.8935 8.30656 33.6587C8.42416 33.9409 8.54176 34.2232 8.65937 34.5054C7.91846 32.7413 7.41277 30.9067 7.1658 29.0133C7.21284 29.3308 7.24812 29.6366 7.29516 29.9541C7.05996 28.1078 7.05996 26.2379 7.29516 24.3915C7.24812 24.709 7.21284 25.0148 7.1658 25.3323C7.42453 23.4389 7.91846 21.5925 8.65937 19.8402C8.54176 20.1225 8.42416 20.4047 8.30656 20.687C8.83577 19.4521 9.48259 18.2643 10.2353 17.1471C10.4117 16.8884 10.5881 16.6414 10.7645 16.3944C11.2349 15.7594 10.4587 16.7708 10.6351 16.5591C10.7527 16.418 10.8586 16.2768 10.9762 16.1357C11.3878 15.6418 11.8229 15.1714 12.2698 14.7127C12.7285 14.254 13.1989 13.8307 13.6928 13.4191C13.8104 13.325 13.928 13.2191 14.0456 13.1251C14.516 12.737 13.2694 13.6895 13.881 13.2544C14.1515 13.0545 14.4219 12.8663 14.7042 12.6782C15.8214 11.9255 17.0092 11.2787 18.2441 10.7495C17.9618 10.8671 17.6796 10.9847 17.3973 11.1023C19.1614 10.3614 20.996 9.85567 22.8894 9.6087C22.5719 9.65574 22.2661 9.69102 21.9486 9.73806C23.8302 9.50285 25.7237 9.50286 27.6053 9.74982C27.2878 9.70278 26.982 9.6675 26.6645 9.62046C28.5109 9.87919 30.3102 10.3731 32.039 11.0905C31.7567 10.9729 31.4745 10.8553 31.1922 10.7377C32.5212 11.314 33.803 12.0078 34.9908 12.831C35.1084 12.9134 35.226 12.9957 35.3436 13.078C35.4613 13.1603 35.9787 13.5602 35.4613 13.1603C34.9673 12.7722 35.3907 13.1133 35.5083 13.1956C35.6377 13.3015 35.767 13.4073 35.8964 13.5249C36.3903 13.9483 36.8725 14.3952 37.3312 14.8538C37.7663 15.3007 38.1897 15.7594 38.5778 16.2415C38.6718 16.3474 39.0717 16.8766 38.6718 16.3474C38.2837 15.8535 38.6248 16.2768 38.7071 16.3944C38.907 16.6649 39.107 16.9472 39.2951 17.2294C40.0243 18.3231 40.6476 19.4874 41.165 20.6987C41.0474 20.4165 40.9298 20.1342 40.8122 19.852C41.5414 21.5808 42.0353 23.3801 42.294 25.2382C42.247 24.9207 42.2117 24.6149 42.1647 24.2974C42.2823 25.2147 42.3528 26.1673 42.3528 27.1317C42.3646 28.978 43.9758 30.7421 45.8809 30.6598C47.7861 30.5774 49.4208 29.1074 49.4091 27.1317C49.3855 22.0512 47.8214 16.8884 44.7872 12.7722C41.5061 8.32682 36.9901 4.99864 31.6627 3.42275C26.7351 1.96446 21.1842 2.08206 16.3624 3.8814C11.9287 5.53961 8.08311 8.29154 5.1783 12.0431C2.21468 15.8887 0.50943 20.4047 0.0860562 25.2382C-0.325557 29.9306 0.756398 34.7288 2.96735 38.8685C7.41277 47.1831 16.7505 52.4282 26.1706 51.7696C31.6156 51.3933 36.6491 49.3352 40.824 45.8189C45.0342 42.2672 48.0566 37.0574 48.9739 31.6241C49.2209 30.1305 49.3973 28.6252 49.3973 27.1199C49.409 25.2735 47.7626 23.5095 45.8692 23.5918C43.964 23.6976 42.3646 25.1559 42.3528 27.1317Z" fill="white"/>
<path d="M98.9447 27.1318C98.9447 28.0609 98.8859 28.99 98.7683 29.9073C98.8153 29.5897 98.8506 29.284 98.8976 28.9664C98.6389 30.8599 98.145 32.7062 97.4041 34.4585C97.5217 34.1763 97.6393 33.894 97.7569 33.6118C97.2277 34.8466 96.5808 36.0344 95.8282 37.1517C95.6518 37.4104 95.4754 37.6574 95.299 37.9043C94.8285 38.5394 95.6047 37.528 95.4283 37.7397C95.3107 37.8808 95.2049 38.0219 95.0873 38.1631C94.6757 38.657 94.2405 39.1274 93.7936 39.5861C93.335 40.0447 92.8646 40.4681 92.3706 40.8797C92.253 40.9738 92.1354 41.0796 92.0178 41.1737C91.5474 41.5618 92.794 40.6092 92.1825 41.0443C91.912 41.2443 91.6415 41.4324 91.3592 41.6206C90.242 42.3733 89.0542 43.0201 87.8194 43.5493C88.1016 43.4317 88.3839 43.3141 88.6661 43.1965C86.9021 43.9374 85.0674 44.4431 83.174 44.6901C83.4915 44.643 83.7973 44.6077 84.1148 44.5607C82.2214 44.7959 80.3162 44.7959 78.4228 44.5372C78.7404 44.5842 79.0461 44.6195 79.3637 44.6665C77.5526 44.4078 75.7767 43.9256 74.0833 43.22C74.3655 43.3376 74.6478 43.4552 74.93 43.5728C73.754 43.0789 72.6367 42.4791 71.5665 41.7853C71.3078 41.6089 71.0373 41.4324 70.7903 41.2443C70.6727 41.162 70.5551 41.0796 70.4375 40.9855C69.8966 40.5975 71.1196 41.5383 70.6022 41.1149C70.12 40.7151 69.6378 40.3034 69.1792 39.8683C68.7205 39.4332 68.2854 38.9745 67.8738 38.5041C67.6856 38.2924 67.5092 38.069 67.321 37.8455C66.8977 37.3281 67.8503 38.5512 67.4504 38.0219C67.3446 37.8808 67.2505 37.7397 67.1446 37.6103C66.2391 36.352 65.4864 34.9878 64.8749 33.5648C64.9925 33.847 65.1101 34.1293 65.2277 34.4115C64.5103 32.6827 64.0046 30.8716 63.7459 29.0135C63.7929 29.331 63.8282 29.6368 63.8753 29.9543C63.6283 28.0491 63.6283 26.1204 63.8753 24.2153C63.8282 24.5328 63.7929 24.8386 63.7459 25.1561C64.0046 23.2979 64.4986 21.4986 65.2277 19.7698C65.1101 20.0521 64.9925 20.3343 64.8749 20.6166C65.3923 19.4053 66.0156 18.241 66.7448 17.1473C66.9212 16.8885 67.0976 16.6298 67.2858 16.3828C67.3681 16.2652 67.4622 16.1594 67.5445 16.0418C66.9094 16.9356 67.2505 16.4299 67.4151 16.2182C67.8267 15.7125 68.2619 15.2303 68.7205 14.7599C69.1557 14.313 69.6143 13.8896 70.0847 13.4898C70.3199 13.2899 70.5669 13.1017 70.8139 12.9018C69.873 13.678 70.8021 12.9253 71.0608 12.7489C72.2486 11.9257 73.5305 11.2318 74.8594 10.6556C74.5772 10.7732 74.2949 10.8908 74.0127 11.0084C75.7415 10.291 77.529 9.79704 79.3872 9.53831C79.0696 9.58536 78.7639 9.62063 78.4463 9.66768C80.328 9.42071 82.2214 9.42071 84.1031 9.65592C83.7856 9.60888 83.4798 9.57359 83.1623 9.52655C85.0557 9.78528 86.9021 10.2792 88.6544 11.0201C88.3721 10.9025 88.0899 10.7849 87.8076 10.6673C89.0424 11.1965 90.2302 11.8433 91.3475 12.596C91.6062 12.7724 91.8532 12.9488 92.1001 13.1252C92.7352 13.5956 91.7238 12.8195 91.9355 12.9959C92.0766 13.1135 92.2177 13.2193 92.3589 13.3369C92.8528 13.7485 93.3232 14.1837 93.7819 14.6306C94.2405 15.0892 94.6639 15.5596 95.0755 16.0536C95.1696 16.1712 95.2754 16.2888 95.3695 16.4064C95.7576 16.8768 94.805 15.6302 95.2402 16.2417C95.4401 16.5122 95.6283 16.7827 95.8164 17.065C96.5691 18.1822 97.2159 19.37 97.7451 20.6048C97.6275 20.3226 97.5099 20.0403 97.3923 19.7581C98.1332 21.5221 98.6389 23.3567 98.8859 25.2502C98.8388 24.9326 98.8036 24.6269 98.7565 24.3093C98.8859 25.2854 98.9447 26.2028 98.9447 27.1318C98.9564 28.9782 100.568 30.7423 102.473 30.6599C104.378 30.5776 106.013 29.1076 106.001 27.1318C105.966 17.7941 100.485 8.78565 91.9355 4.84592C87.0549 2.59969 81.7863 1.92935 76.4941 2.91722C71.296 3.88157 66.3214 6.7511 62.8403 10.7379C59.2652 14.8305 57.1718 19.8169 56.6897 25.2266C56.1957 30.8128 57.7951 36.7283 61.0763 41.2796C64.2045 45.6191 68.4853 48.865 73.5658 50.582C78.2817 52.1814 83.6209 52.2285 88.3721 50.7937C97.2277 48.1123 104.343 40.327 105.66 31.0833C105.848 29.7662 105.989 28.4608 106.001 27.1201C106.013 25.2737 104.378 23.5096 102.473 23.592C100.556 23.6978 98.9564 25.1561 98.9447 27.1318Z" fill="white"/>
<path d="M56.6056 27.132C56.6173 30.1897 57.1701 33.2826 58.3226 36.1287C59.7691 34.6821 61.2157 33.2356 62.6622 31.7891C56.4409 29.8957 49.5846 29.8957 43.3634 31.7891C44.8099 33.2356 46.2565 34.6821 47.703 36.1287C49.5023 31.695 49.8081 26.7556 48.8908 22.0868C48.0558 17.8413 45.9625 13.9133 43.1282 10.6792C41.5641 8.90339 39.6942 7.37455 37.6949 6.11619C37.4127 8.26834 37.1304 10.4205 36.8482 12.5609C39.8823 11.3848 42.9048 10.2088 45.9389 9.04452C47.5736 8.40946 49.2671 7.96257 51.0077 7.7156C50.6901 7.76264 50.3844 7.79792 50.0668 7.84496C52.019 7.58623 53.9948 7.58623 55.947 7.84496C55.6295 7.79792 55.3237 7.76264 55.0062 7.7156C57.3347 8.04489 59.4751 8.80931 61.6508 9.6443C63.6265 10.4087 65.6023 11.1731 67.578 11.9376C68.1072 12.1375 68.6365 12.3492 69.1657 12.5491C68.8834 10.397 68.6012 8.24481 68.3189 6.10443C61.1098 10.6557 56.6409 18.5939 56.6056 27.132C56.5938 28.9783 58.2285 30.7424 60.1337 30.6601C62.0506 30.5778 63.65 29.1077 63.6618 27.132C63.6618 26.1676 63.7324 25.2033 63.8617 24.2507C63.8147 24.5682 63.7794 24.874 63.7324 25.1915C63.9911 23.3334 64.485 21.534 65.2142 19.8053C65.0966 20.0875 64.979 20.3698 64.8614 20.652C65.2847 19.6759 65.7669 18.7351 66.3197 17.8295C66.5901 17.3944 66.8724 16.971 67.1664 16.5476C67.2487 16.43 67.331 16.3242 67.4134 16.2066C67.6956 15.8303 67.2252 16.4771 67.1782 16.5124C67.3781 16.3595 67.5545 16.0537 67.7191 15.8538C68.3777 15.0776 69.1069 14.3484 69.8713 13.6781C70.083 13.4899 70.3064 13.3135 70.5181 13.1254C70.6004 13.0548 70.7063 12.996 70.7886 12.9137C70.671 13.0313 70.083 13.4429 70.5534 13.1018C70.9885 12.7843 71.4354 12.4785 71.8941 12.1963C73.1054 11.4319 73.7757 10.103 73.5758 8.67995C73.3759 7.19814 72.3998 6.26907 71.0473 5.75162C67.8015 4.49326 64.5791 3.16433 61.3097 1.9883C56.5938 0.294803 51.2664 0.153678 46.4329 1.44732C44.4454 1.97654 42.5284 2.82328 40.6115 3.56419C38.7298 4.29333 36.8482 5.02247 34.9665 5.75162C33.6258 6.26907 32.638 7.18638 32.438 8.67995C32.2499 10.103 32.9084 11.4319 34.1198 12.1963C34.5549 12.4668 34.9783 12.749 35.3899 13.0548C35.484 13.1254 35.9544 13.4899 35.4369 13.0901C34.9195 12.6902 35.4016 13.0548 35.484 13.1254C35.6839 13.29 35.8838 13.4547 36.072 13.6193C36.8599 14.3014 37.6008 15.0541 38.2829 15.842C38.4476 16.0302 38.6122 16.2419 38.7651 16.43C39.0356 16.7476 38.2829 15.7832 38.5299 16.1243C38.6122 16.2419 38.7063 16.3477 38.7886 16.4653C39.0944 16.8769 39.3766 17.3003 39.6471 17.7354C40.2234 18.6645 40.7173 19.6289 41.1525 20.6285C41.0349 20.3462 40.9173 20.064 40.7997 19.7817C41.5288 21.5105 42.0227 23.3099 42.2815 25.168C42.2344 24.8505 42.1991 24.5447 42.1521 24.2272C42.3991 26.1323 42.3991 28.0375 42.1639 29.9427C42.2109 29.6252 42.2462 29.3194 42.2932 29.0019C42.0462 30.8012 41.5758 32.5417 40.8937 34.2235C40.4351 35.3525 40.9878 36.846 41.7993 37.6575C42.6696 38.5278 44.0338 38.9276 45.2333 38.5631C46.7739 38.0926 48.338 37.7633 49.9257 37.5399C49.6082 37.5869 49.3024 37.6222 48.9849 37.6693C51.6545 37.3165 54.3476 37.3165 57.0172 37.6693C56.6997 37.6222 56.3939 37.5869 56.0764 37.5399C57.664 37.7633 59.2399 38.0926 60.7688 38.5631C61.9683 38.9276 63.3325 38.5278 64.2028 37.6575C65.0143 36.846 65.567 35.3525 65.1083 34.2235C64.4262 32.5535 63.9676 30.813 63.7089 29.0254C63.7559 29.3429 63.7912 29.6487 63.8382 29.9662C63.7206 29.0136 63.6501 28.061 63.6501 27.1084C63.6383 25.2621 62.0389 23.498 60.1219 23.5803C58.2285 23.6979 56.5938 25.1562 56.6056 27.132Z" fill="white"/>
<path d="M49.809 14.3486C49.809 14.3603 49.809 14.3721 49.809 14.3839C49.856 14.0663 49.8913 13.7606 49.9383 13.443C49.9383 13.4783 49.9266 13.5136 49.9148 13.5371C50.0324 13.2549 50.15 12.9726 50.2676 12.6904C50.2559 12.7139 50.2441 12.7256 50.2323 12.7492C50.4205 12.514 50.5969 12.2787 50.7851 12.0318C50.7616 12.0553 50.738 12.0788 50.7145 12.1023C50.9497 11.9142 51.1849 11.7378 51.4319 11.5496C51.4084 11.5614 51.3966 11.5731 51.3731 11.5849C51.6553 11.4673 51.9376 11.3497 52.2198 11.2321C52.1846 11.2438 52.161 11.2556 52.1258 11.2556C52.4433 11.2086 52.7491 11.1733 53.0666 11.1262C53.0431 11.1262 53.0195 11.1262 52.996 11.1262C53.3136 11.1733 53.6193 11.2086 53.9369 11.2556C53.9016 11.2556 53.8663 11.2438 53.8428 11.2321C54.125 11.3497 54.4073 11.4673 54.6895 11.5849C54.666 11.5731 54.6542 11.5614 54.6307 11.5496C54.8659 11.7378 55.1011 11.9142 55.3481 12.1023C55.3246 12.0788 55.3011 12.0553 55.2775 12.0318C55.4657 12.267 55.6421 12.5022 55.8303 12.7492C55.8185 12.7256 55.8068 12.7139 55.795 12.6904C55.9126 12.9726 56.0302 13.2549 56.1478 13.5371C56.136 13.5018 56.1243 13.4783 56.1243 13.443C56.1713 13.7606 56.2066 14.0663 56.2536 14.3839C56.2536 14.3603 56.2536 14.3368 56.2536 14.3133C56.2066 14.6308 56.1713 14.9366 56.1243 15.2541C56.1243 15.2188 56.136 15.1836 56.1478 15.16C56.0302 15.4423 55.9126 15.7245 55.795 16.0068C55.8068 15.9833 55.8185 15.9715 55.8303 15.948C55.6421 16.1832 55.4657 16.4184 55.2775 16.6654C55.3011 16.6418 55.3246 16.6183 55.3481 16.5948C55.1129 16.783 54.8777 16.9594 54.6307 17.1475C54.6542 17.1358 54.666 17.124 54.6895 17.1123C54.4073 17.2299 54.125 17.3475 53.8428 17.4651C53.878 17.4533 53.9016 17.4415 53.9369 17.4415C53.6193 17.4886 53.3136 17.5239 52.996 17.5709C53.0195 17.5709 53.0431 17.5709 53.0666 17.5709C52.7491 17.5239 52.4433 17.4886 52.1258 17.4415C52.161 17.4415 52.1963 17.4533 52.2198 17.4651C51.9376 17.3475 51.6553 17.2299 51.3731 17.1123C51.3966 17.124 51.4084 17.1358 51.4319 17.1475C51.1967 16.9594 50.9615 16.783 50.7145 16.5948C50.738 16.6183 50.7616 16.6418 50.7851 16.6654C50.5969 16.4302 50.4205 16.195 50.2323 15.948C50.2441 15.9715 50.2559 15.9833 50.2676 16.0068C50.15 15.7245 50.0324 15.4423 49.9148 15.16C49.9266 15.1953 49.9383 15.2188 49.9383 15.2541C49.8913 14.9366 49.856 14.6308 49.809 14.3133C49.809 14.325 49.809 14.3368 49.809 14.3486C49.7854 14.8307 49.8913 15.2894 50.1147 15.7128C50.2559 16.1479 50.5028 16.5242 50.8439 16.8535C51.1614 17.1946 51.5377 17.4416 51.9846 17.5827C52.408 17.8061 52.8549 17.9002 53.3488 17.8884C53.6664 17.8414 53.9721 17.8061 54.2897 17.7591C54.8894 17.5944 55.4069 17.2887 55.842 16.8535C56.0302 16.6183 56.2066 16.3831 56.3948 16.1361C56.7123 15.5834 56.8769 14.9954 56.8769 14.3603C56.8652 14.1957 56.8417 14.0193 56.8064 13.8546C56.7829 13.69 56.7711 13.5136 56.7358 13.3489C56.6888 13.1843 56.5947 13.0196 56.5359 12.8668C56.4418 12.6316 56.4183 12.5492 56.3242 12.3846C56.136 12.1494 55.9596 11.9142 55.7715 11.6672C55.7597 11.6554 55.748 11.6437 55.7362 11.6319C55.7244 11.6202 55.7127 11.6084 55.7009 11.5966C55.4657 11.4085 55.2305 11.2321 54.9835 11.0439C54.6895 10.8675 54.5366 10.7969 54.078 10.6558C53.7369 10.55 53.3606 10.5029 53.0078 10.5029C52.655 10.5029 52.2786 10.55 51.9376 10.6558C51.4789 10.8087 51.3261 10.8793 51.032 11.0439C50.7968 11.2321 50.5616 11.4085 50.3147 11.5966C50.3029 11.6084 50.2911 11.6202 50.2794 11.6319C50.2676 11.6437 50.2559 11.6554 50.2441 11.6672C50.0559 11.9024 49.8795 12.1376 49.6914 12.3846C49.5973 12.5375 49.562 12.6551 49.4797 12.8668C49.4209 13.0196 49.3268 13.1843 49.2797 13.3489C49.2562 13.5136 49.2327 13.6782 49.2092 13.8546C49.1739 14.0193 49.1504 14.1839 49.1386 14.3603C49.1033 15.3364 49.562 16.4066 50.2559 17.077C50.4793 17.2887 50.9732 17.6415 51.0203 17.6768C51.1732 17.7708 51.2908 17.7944 51.5025 17.8884C51.6553 17.9472 51.82 18.0413 51.9846 18.0884C52.1493 18.1119 52.3139 18.1354 52.4903 18.1589C52.655 18.1942 52.8079 18.2177 52.9725 18.2177C52.996 18.2177 53.0078 18.2177 53.0313 18.2177C53.3488 18.1707 53.6546 18.1354 53.9721 18.0884C54.0074 18.0766 54.0309 18.0766 54.0662 18.0649C54.3485 17.9472 54.6307 17.8296 54.913 17.712C54.9247 17.7003 54.9482 17.7003 54.96 17.6885C55.2305 17.5356 55.4892 17.3357 55.7127 17.1123C55.9479 16.8653 56.1713 16.583 56.3477 16.289C56.7123 15.6657 56.8181 15.0895 56.8534 14.3721C56.8769 13.8899 56.7711 13.4313 56.5477 13.0079C56.4065 12.5728 56.1596 12.1964 55.8185 11.8671C55.501 11.5261 55.1247 11.2791 54.6778 11.138C54.2544 10.9145 53.8075 10.8205 53.3135 10.8322C52.996 10.8793 52.6903 10.9145 52.3727 10.9616C51.7729 11.1262 51.2555 11.432 50.8204 11.8671C50.6322 12.1023 50.4558 12.3375 50.2676 12.5845C49.9736 13.1137 49.809 13.7135 49.809 14.3486Z" fill="white"/>
</g>
</svg>
