<svg width="152" height="88" viewBox="0 0 152 88" fill="none" xmlns="http://www.w3.org/2000/svg">
<path d="M93.8894 84.5733C117.769 96.6661 147.606 74.6944 150.71 50.7925C152.879 34.1051 144.035 16.3052 129.856 7.08261C125.095 3.97875 119.599 1.39777 113.97 0.374273C104.92 -1.25553 95.5693 2.49357 90.8245 10.5258C87.7429 15.7378 87.6594 21.8287 87.2645 27.6916C86.7973 34.6446 87.4926 41.2473 86.0185 48.1447C84.2274 56.5385 81.2292 65.9947 84.6223 74.3606C86.3369 78.7988 89.6425 82.4395 93.895 84.5733" fill="#FBBA00"/>
<path d="M105.438 56.1326C103.547 56.1326 101.833 55.0201 100.743 53.1567L90.575 34.6948C90.1655 33.9765 90.0568 33.1253 90.2725 32.3271C90.4882 31.5289 91.0109 30.8483 91.7264 30.434C92.4487 30.0607 93.2835 29.9678 94.0702 30.1732C94.8568 30.3786 95.5397 30.8678 95.9873 31.5465L105.443 47.8779L114.777 31.6355C115.224 30.9558 115.907 30.4658 116.694 30.2604C117.481 30.0549 118.316 30.1484 119.038 30.523C119.754 30.9373 120.276 31.6178 120.492 32.4161C120.708 33.2143 120.599 34.0655 120.19 34.7838L110.133 53.14C109.02 55.0312 107.351 56.1159 105.443 56.1159" fill="white"/>
<path d="M131.347 30.0669C133.238 30.0669 134.951 31.1794 136.042 33.0428L146.232 51.5046C146.642 52.223 146.75 53.0742 146.535 53.8724C146.319 54.6706 145.796 55.3511 145.081 55.7655C144.358 56.1388 143.524 56.2316 142.737 56.0262C141.95 55.8209 141.267 55.3317 140.82 54.653L131.364 38.3272L122.024 54.5696C121.577 55.2483 120.894 55.7374 120.107 55.9428C119.32 56.1482 118.486 56.0553 117.763 55.6821C117.043 55.2713 116.514 54.5918 116.293 53.7923C116.072 52.9927 116.177 52.1382 116.584 51.4156L126.641 33.0595C127.754 31.1738 129.422 30.0836 131.336 30.0836" fill="white"/>
<path d="M42.4196 29.9941C39.8419 29.9941 37.3222 30.7585 35.1789 32.1906C33.0357 33.6226 31.3652 35.6581 30.3788 38.0395C29.3924 40.421 29.1343 43.0415 29.6371 45.5696C30.14 48.0977 31.3813 50.4199 33.204 52.2426C35.0266 54.0653 37.3489 55.3066 39.877 55.8094C42.4051 56.3123 45.0256 56.0542 47.407 55.0678C49.7885 54.0814 51.8239 52.4109 53.256 50.2677C54.6881 48.1244 55.4524 45.6047 55.4524 43.027C55.4466 39.5723 54.0716 36.2607 51.6287 33.8179C49.1859 31.375 45.8743 30 42.4196 29.9941ZM42.4196 49.6241C41.1157 49.6252 39.8407 49.2395 38.756 48.5159C37.6713 47.7923 36.8256 46.7632 36.3258 45.5589C35.8261 44.3545 35.6948 43.029 35.9485 41.75C36.2022 40.471 36.8295 39.296 37.7511 38.3736C38.6728 37.4512 39.8472 36.8229 41.126 36.5681C42.4048 36.3133 43.7304 36.4435 44.9352 36.9423C46.14 37.441 47.1698 38.2858 47.8943 39.3699C48.6188 40.454 49.0055 41.7286 49.0055 43.0326C49.0026 44.7789 48.308 46.4529 47.0736 47.6883C45.8393 48.9236 44.1659 49.6197 42.4196 49.6241Z" fill="#1D1D1B"/>
<path d="M80.3759 30.0723C79.5222 30.0752 78.7044 30.4164 78.1018 31.0211C77.4992 31.6258 77.1608 32.4448 77.1608 33.2985V43.9951C77.1145 45.4757 76.4939 46.8802 75.4302 47.9111C74.3665 48.9421 72.9434 49.5186 71.462 49.5186C69.9807 49.5186 68.5576 48.9421 67.4939 47.9111C66.4302 46.8802 65.8096 45.4757 65.7633 43.9951V33.2985C65.7633 32.4436 65.4237 31.6237 64.8192 31.0192C64.2147 30.4147 63.3948 30.075 62.5399 30.075C61.685 30.075 60.8651 30.4147 60.2605 31.0192C59.656 31.6237 59.3164 32.4436 59.3164 33.2985V43.9951C59.3164 47.2156 60.5957 50.3042 62.873 52.5814C65.1502 54.8586 68.2388 56.138 71.4593 56.138C74.6798 56.138 77.7683 54.8586 80.0456 52.5814C82.3228 50.3042 83.6021 47.2156 83.6021 43.9951V33.2985C83.6007 32.4443 83.2611 31.6253 82.6575 31.0208C82.054 30.4162 81.2357 30.0752 80.3815 30.0723" fill="#1D1D1B"/>
<path d="M29.3306 32.3531C29.2211 31.9456 29.032 31.5638 28.7742 31.2296C28.5165 30.8955 28.1951 30.6157 27.8287 30.4063C27.0792 30.0245 26.2149 29.9338 25.4025 30.1515C24.59 30.3693 23.887 30.8801 23.4288 31.5855L14.7681 46.6042L6.09617 31.5855C5.89855 31.1938 5.62297 30.8465 5.28633 30.5651C4.9497 30.2837 4.55912 30.074 4.13855 29.949C3.71797 29.8239 3.27628 29.7862 2.84058 29.8379C2.40488 29.8897 1.98435 30.03 1.6048 30.2501C1.22525 30.4703 0.894683 30.7656 0.633385 31.1181C0.372087 31.4706 0.185567 31.8727 0.0852698 32.2999C-0.0150278 32.727 -0.0269812 33.1702 0.0501309 33.6021C0.127243 34.0341 0.2918 34.4457 0.533706 34.8117L9.9899 51.2266C10.3225 51.8054 10.7386 52.3321 11.2248 52.7896L7.99298 58.391C7.74321 58.8675 7.62106 59.4005 7.63846 59.9381C7.65586 60.4758 7.81221 60.9998 8.09226 61.459C8.37232 61.9183 8.76654 62.2973 9.23654 62.5589C9.70653 62.8206 10.2363 62.9561 10.7742 62.9523C11.3929 62.9505 12.0003 62.7868 12.536 62.4775C13.0718 62.1681 13.5172 61.7239 13.828 61.189L29.0358 34.8062C29.248 34.4385 29.3852 34.0324 29.4397 33.6114C29.4941 33.1903 29.4646 32.7627 29.3528 32.3531" fill="#1D1D1B"/>
</svg>
