<svg width="126" height="70" viewBox="0 0 126 70" fill="none" xmlns="http://www.w3.org/2000/svg">
<path d="M119.292 2.71612H121.18C121.42 2.70865 121.661 2.72069 121.9 2.75214C122.034 2.78353 122.165 2.82943 122.289 2.88902C122.488 2.99526 122.651 3.15825 122.758 3.35731C122.872 3.57964 122.927 3.82793 122.916 4.07777C122.922 4.31286 122.862 4.54496 122.743 4.7478C122.622 4.9399 122.45 5.09455 122.246 5.19448C122.41 5.23726 122.554 5.33366 122.657 5.46826C122.759 5.66607 122.809 5.88689 122.801 6.10945L122.866 6.91635C122.871 7.04583 122.893 7.17409 122.93 7.29819L123.082 7.4783V7.60798H122.311C122.235 7.39773 122.196 7.17594 122.196 6.95239L122.152 6.32557C122.169 6.09624 122.096 5.86943 121.951 5.6916C121.673 5.55689 121.363 5.50437 121.057 5.54028H119.998V7.62961H119.328L119.292 2.71612ZM119.955 3.29247V4.93511H121.079C121.382 4.9669 121.686 4.89584 121.943 4.73338C122.033 4.65118 122.103 4.54915 122.147 4.43535C122.191 4.32156 122.207 4.19912 122.196 4.07777C122.207 3.96415 122.192 3.84939 122.151 3.74291C122.109 3.63644 122.043 3.5413 121.958 3.46538C121.685 3.32573 121.377 3.26582 121.072 3.29247H119.955ZM125.207 5.10803C125.214 5.96448 124.967 6.80374 124.496 7.51933C124.026 8.23492 123.353 8.79458 122.564 9.12729C121.775 9.46 120.904 9.55075 120.063 9.38805C119.222 9.22535 118.449 8.81651 117.841 8.21342C117.233 7.61034 116.817 6.8402 116.648 6.0007C116.478 5.16121 116.561 4.29022 116.887 3.49825C117.213 2.70627 117.767 2.02902 118.479 1.55242C119.191 1.07582 120.028 0.821357 120.884 0.821327C122.025 0.821287 123.119 1.27177 123.928 2.07467C124.738 2.87756 125.198 3.96783 125.207 5.10803ZM120.884 0C119.874 0 118.887 0.299583 118.047 0.860859C117.207 1.42213 116.552 2.21991 116.165 3.15328C115.779 4.08665 115.677 5.11369 115.875 6.10455C116.072 7.0954 116.558 8.00556 117.272 8.71992C117.987 9.43429 118.897 9.9208 119.888 10.1179C120.879 10.315 121.906 10.2138 122.839 9.82721C123.772 9.44059 124.57 8.78588 125.132 7.94587C125.693 7.10586 125.992 6.1183 125.992 5.10803C125.992 3.7533 125.454 2.45405 124.496 1.49611C123.538 0.538176 122.239 0 120.884 0Z" fill="white"/>
<path d="M126 34.6826C126 53.8178 97.7871 69.3508 62.982 69.3508C28.1769 69.3508 0 53.8178 0 34.6826C0 15.5474 28.2057 0 63.0108 0C97.8159 0 126 15.5258 126 34.6826Z" fill="#2F6DB2"/>
<path d="M24.4587 13.0981C19.0625 15.8214 15.0929 18.9698 12.6289 22.3199C20.6331 13.6745 38.6517 8.53044 63.003 8.53044C87.3543 8.53044 105.373 13.7105 113.37 22.3199C110.92 18.9698 106.943 15.8358 101.547 13.0981C91.3096 7.94687 77.621 5.10107 63.003 5.10107C48.385 5.10107 34.6964 7.98289 24.4587 13.0981Z" fill="white"/>
<path d="M24.538 31.0302C24.1129 31.2391 23.9328 31.7507 23.9328 32.4711V42.5575C23.9328 43.4436 23.4213 43.8759 22.4343 43.8759C21.4472 43.8759 20.6836 43.631 20.3161 43.1555L17.636 39.5532L13.7384 34.3731V40.8572C13.6978 41.1496 13.7398 41.4475 13.8594 41.7174C13.9791 41.9872 14.1717 42.2183 14.4156 42.3846C14.8479 42.6799 15.0928 42.8961 15.0928 43.1482C15.0928 43.6093 14.6318 43.8687 13.7384 43.8687H11.7355C10.8134 43.8687 10.3451 43.6237 10.3451 43.1482C10.3451 42.9033 10.5612 42.6799 11.0223 42.3846C11.2723 42.2219 11.4721 41.9929 11.5994 41.7232C11.7266 41.4534 11.7763 41.1536 11.7427 40.8572V32.9682C11.7867 32.6069 11.7339 32.2403 11.5896 31.9061C11.4452 31.5719 11.2147 31.282 10.9214 31.0663C10.3523 30.742 10.0713 30.4971 10.0713 30.3458C10.0713 29.7478 10.4675 29.4164 11.2817 29.4164H15.0496C15.3524 29.4109 15.6517 29.4828 15.9189 29.6253C16.1862 29.7677 16.4127 29.9761 16.577 30.2305L17.6577 31.6714L21.9083 37.3414H21.9804V32.5288C22.0052 32.2485 21.9641 31.9663 21.8603 31.7049C21.7564 31.4434 21.5927 31.2098 21.3824 31.023C20.9501 30.742 20.734 30.5259 20.734 30.353C20.734 29.7406 21.1591 29.4524 21.9804 29.4524H23.9544C24.7757 29.4524 25.208 29.7406 25.208 30.353C25.208 30.6051 24.9847 30.8501 24.5524 31.0734L24.538 31.0302ZM48.9109 43.1482C48.3277 43.6537 47.5705 43.9121 46.8 43.8687H46.5838C46.0533 43.8687 45.5335 43.7186 45.0847 43.4355C44.6359 43.1525 44.2764 42.7481 44.0479 42.2693C42.2729 39.1573 40.9393 35.8136 40.0854 32.3342C40.0621 32.1771 40.016 32.0242 39.9485 31.8803C39.826 31.7002 39.7323 31.4841 39.5522 31.2175C39.3349 30.9054 39.1762 30.5563 39.0839 30.1873C39.0839 29.7622 39.3577 29.5101 39.9485 29.4668C40.0347 29.4298 40.1288 29.4149 40.2222 29.4236H44.6602C45.4816 29.4236 45.9138 29.7118 45.9138 30.3242C45.9138 30.5763 45.7265 30.8213 45.3303 31.0446C44.934 31.268 44.7611 31.5417 44.7611 31.8371C44.7611 32.5576 45.4383 34.438 46.7928 37.4711C47.225 38.3932 47.6933 39.4379 48.2337 40.5834C50.0997 36.2607 51.0362 33.4798 51.0362 32.1613C51.0099 31.9464 50.9302 31.7415 50.8043 31.5654C50.6785 31.3892 50.5105 31.2473 50.3158 31.1527C49.8187 30.8357 49.5953 30.5115 49.5953 30.2161C49.5953 29.6902 50.1573 29.402 51.3388 29.402H52.7365C53.1643 29.3938 53.5904 29.4571 53.9973 29.5893C54.1451 29.646 54.2733 29.7441 54.3666 29.8719C54.4599 29.9997 54.5143 30.1518 54.5232 30.3098C54.5224 30.4697 54.4792 30.6265 54.3983 30.7644C54.3173 30.9023 54.2014 31.0164 54.0621 31.0951L53.9901 31.1599C53.7742 31.2978 53.6096 31.5028 53.5218 31.7435C51.3364 38.3188 49.7995 42.106 48.9109 43.105V43.1482ZM73.7521 25.5548C73.4463 25.7945 73.2065 26.1081 73.0553 26.466C72.9041 26.824 72.8463 27.2145 72.8876 27.6009V41.9523C72.9418 42.4865 72.8312 43.0246 72.5706 43.4941C72.0267 43.8318 71.3822 43.9694 70.7478 43.8831C70.1632 43.9259 69.5755 43.8993 68.9971 43.8039C68.7188 43.7358 68.4571 43.6119 68.2281 43.4398C67.999 43.2676 67.8072 43.0508 67.6643 42.8024L62.7076 35.9941L58.6298 30.2954H58.5578V39.5964C58.5189 40.0166 58.5871 40.4398 58.7559 40.8265C58.9247 41.2133 59.1887 41.551 59.5232 41.8082C60.2076 42.2765 60.5318 42.6223 60.5318 42.8961C60.5318 43.5517 59.8114 43.8759 58.5578 43.8759H55.7336C55.1213 43.951 54.5029 43.797 53.9973 43.4436C53.9116 43.3819 53.8434 43.299 53.7992 43.203C53.755 43.1071 53.7364 43.0013 53.7452 42.8961C53.7492 42.7969 53.7737 42.6996 53.817 42.6104C53.8604 42.5211 53.9218 42.4418 53.9973 42.3773C54.2036 42.1304 54.4465 41.9165 54.7178 41.7433C55.0604 41.5037 55.333 41.1772 55.5077 40.7974C55.6825 40.4176 55.753 39.9981 55.712 39.582V28.2781C55.712 26.9885 55.3229 26.1167 54.5304 25.6629C54.3321 25.5609 54.144 25.4403 53.9685 25.3026C53.565 25.0217 53.3849 24.8199 53.3849 24.5822C53.3669 24.3648 53.4124 24.1469 53.516 23.9551C53.6196 23.7632 53.7769 23.6056 53.9685 23.5015C54.3171 23.3136 54.7118 23.2287 55.1068 23.2565H60.2797C60.7241 23.2461 61.1636 23.3523 61.5542 23.5647C61.9448 23.7771 62.273 24.0882 62.5059 24.4669L62.6788 24.6902L69.9986 34.6253H70.0346V27.6225C70.0767 27.2367 70.02 26.8466 69.8701 26.4887C69.7201 26.1309 69.4817 25.8169 69.1772 25.5764C68.6081 25.1441 68.3271 24.7479 68.3271 24.4597C68.3271 23.6456 68.8963 23.2493 70.0346 23.2493H72.8588C73.1495 23.2083 73.4459 23.2401 73.7213 23.342C73.9967 23.4438 74.2425 23.6125 74.4365 23.8329C74.5495 24.0251 74.6092 24.244 74.6095 24.4669C74.5966 24.6295 74.5365 24.7847 74.4365 24.9136C74.231 25.1714 73.9882 25.3973 73.7161 25.5836L73.7521 25.5548ZM86.9076 43.4508C86.7563 43.739 86.2664 43.8327 85.4667 43.8327H75.5028C74.9985 43.8327 74.6455 43.7678 74.4726 43.5589C74.36 43.4457 74.2955 43.2934 74.2925 43.1338C74.2977 42.9399 74.3604 42.7518 74.4726 42.5935C74.5553 42.4671 74.6632 42.3592 74.7896 42.2765C74.9413 42.2168 75.0713 42.1126 75.1626 41.9776C75.254 41.8425 75.3022 41.683 75.3011 41.52V31.8587C75.2926 31.679 75.2418 31.5038 75.1529 31.3474C75.0641 31.1909 74.9396 31.0576 74.7896 30.9582C74.6644 30.871 74.5569 30.761 74.4726 30.634C74.3735 30.4985 74.3114 30.3396 74.2925 30.1729C74.2962 30.0027 74.36 29.8394 74.4726 29.7118C74.7691 29.4929 75.1357 29.3903 75.5028 29.4236H85.1929C86.3024 29.4236 86.8716 29.8126 86.8716 30.5763V31.4841C86.8716 32.3126 86.5474 32.7161 85.935 32.7161C85.5007 32.5377 85.1117 32.2645 84.7967 31.9164C83.9443 31.3593 82.9291 31.1055 81.9149 31.1959C81.5556 31.1885 81.1964 31.2126 80.8414 31.268C80.7027 31.2955 80.5691 31.3441 80.4451 31.4121C80.1858 31.5922 80.0993 32.0172 80.0993 32.7377V35.0864H82.4768C82.9712 35.0918 83.4565 34.9542 83.8745 34.6901C84.086 34.5116 84.3309 34.3769 84.5949 34.2939C85.1281 34.2939 85.4163 34.8774 85.4163 36.023C85.4163 37.1685 85.1281 37.8241 84.5949 37.8241C84.3288 37.7535 84.0823 37.6229 83.8745 37.4422C83.4702 37.1448 82.9786 36.9902 82.4768 37.0028H80.0993V40.0431C80.0993 40.9365 80.229 41.484 80.4739 41.7289C80.582 41.7938 80.6973 41.8658 80.8414 41.9379C81.3086 42.0767 81.7951 42.1399 82.2823 42.1252C83.3058 42.1721 84.3109 41.8414 85.1065 41.1958C85.4706 40.8354 85.8887 40.534 86.3456 40.3024C86.4814 40.2847 86.6193 40.2985 86.7489 40.3425C86.8784 40.3866 86.9961 40.4598 87.0929 40.5566C87.1897 40.6534 87.2629 40.7711 87.307 40.9007C87.3511 41.0302 87.3648 41.1682 87.3471 41.3039C87.3833 42.0521 87.2244 42.7969 86.886 43.4652L86.9076 43.4508ZM100.87 43.2491C100.719 43.5373 100.214 43.6814 99.4291 43.6814H89.4076C88.5502 43.6814 88.154 43.4004 88.154 42.8456C88.1708 42.6696 88.2293 42.5001 88.3245 42.351C88.4197 42.202 88.5489 42.0776 88.7015 41.9883C89.0545 41.7217 89.2275 41.4912 89.2275 41.2678V31.5633C89.2177 31.388 89.1646 31.2179 89.0728 31.0683C88.981 30.9186 88.8534 30.7941 88.7015 30.706C88.3341 30.4178 88.154 30.1657 88.154 29.8847C88.154 29.4164 88.5502 29.1642 89.4076 29.1642H99.1625C100.265 29.1642 100.834 29.5749 100.834 30.3458V31.3184C100.834 32.0388 100.51 32.4207 99.8325 32.4207C99.3877 32.2581 98.9771 32.0138 98.6222 31.7002C97.8029 31.1447 96.8217 30.8785 95.834 30.9438C95.4724 30.9389 95.1111 30.963 94.7533 31.0158C94.6156 31.0239 94.483 31.0714 94.3715 31.1527C94.1914 31.2968 94.0977 31.7002 94.0977 32.4063V34.8342H96.4608C96.9327 34.8314 97.3944 34.6967 97.7936 34.4452C98.0172 34.2406 98.2865 34.0924 98.5789 34.0129C99.1841 34.0129 99.4651 34.6253 99.4651 35.8356C99.4651 37.046 99.1841 37.6296 98.5789 37.6296C98.2865 37.5704 98.0197 37.4218 97.8153 37.2045C97.4366 36.8907 96.9512 36.7358 96.4608 36.7722H94.1121V39.8342C94.0416 40.4187 94.163 41.0104 94.4579 41.52C94.5558 41.591 94.6594 41.6537 94.7677 41.7073C95.2526 41.813 95.7486 41.859 96.2447 41.8442C97.2853 41.9253 98.3172 41.6028 99.1265 40.9437C99.7893 40.3313 100.186 40.0503 100.322 40.0503C101.043 40.0503 101.403 40.3817 101.403 41.0589C101.462 41.8089 101.302 42.5598 100.942 43.2203L100.87 43.2491ZM114.976 32.9971C114.688 32.9971 114.335 32.7161 113.867 32.1037C113.685 31.8332 113.439 31.6111 113.152 31.4567C112.864 31.3023 112.543 31.2203 112.217 31.2175C111.727 31.2175 111.497 31.4553 111.497 31.9956V41.3615C111.497 41.5416 111.549 41.7178 111.646 41.8696C111.743 42.0213 111.881 42.1425 112.044 42.2188C112.173 42.2976 112.285 42.4022 112.372 42.5262C112.459 42.6502 112.519 42.7909 112.549 42.9393C112.549 43.4796 112.159 43.7318 111.295 43.7318H106.936C106.108 43.7318 105.69 43.4796 105.69 42.9393C105.697 42.7662 105.75 42.5982 105.844 42.4525C105.937 42.3069 106.068 42.1889 106.223 42.1108C106.375 42.0388 106.505 41.9285 106.601 41.7908C106.697 41.6531 106.755 41.4927 106.77 41.3255V31.9596C106.77 31.4193 106.518 31.1815 106.05 31.1815C105.734 31.1967 105.426 31.2846 105.15 31.4383C104.874 31.592 104.637 31.8074 104.458 32.0677C103.954 32.6873 103.593 32.961 103.298 32.961C102.657 32.961 102.296 32.608 102.296 31.8227C102.245 31.0793 102.435 30.3392 102.837 29.7118C102.981 29.474 103.377 29.3516 104.047 29.3516H114.206C114.876 29.3516 115.279 29.4668 115.423 29.7118C115.792 30.3527 115.974 31.0838 115.949 31.8227C115.949 32.608 115.618 32.961 114.955 32.961L114.976 32.9971ZM39.9413 43.6454C39.8116 43.6762 39.6781 43.6883 39.545 43.6814H35.5393C34.6748 43.6814 34.2929 43.4292 34.2929 42.9609C34.3164 42.7298 34.4303 42.5174 34.6099 42.3701C34.826 42.1828 34.9629 42.0459 35.0062 42.0099C34.6459 40.7996 34.401 39.899 34.2857 39.337H29.3866C29.1189 40.0823 28.914 40.8486 28.7743 41.6281C28.7743 41.8154 28.9616 41.9811 29.2858 42.2333C29.428 42.2953 29.5503 42.3954 29.6393 42.5225C29.7283 42.6496 29.7805 42.7989 29.7901 42.9537C29.7901 43.4364 29.3866 43.6742 28.6013 43.6742H26.44C25.7916 43.6742 25.4674 43.422 25.4674 42.9537C25.4849 42.7973 25.5434 42.6483 25.6371 42.5218C25.7307 42.3953 25.8561 42.2958 26.0005 42.2333C26.3247 41.9811 26.5048 41.837 26.5048 41.7506C27.6196 38.1995 28.9575 34.7224 30.5105 31.34C30.7145 30.7795 31.028 30.2652 31.4327 29.8271C31.9023 29.5742 32.4364 29.4664 32.9673 29.5173H33.1042C33.5948 29.4737 34.0888 29.5478 34.5451 29.7334C34.8044 29.8271 35.1214 30.2593 35.5177 30.9798C35.8275 31.5057 36.62 33.3789 37.9168 36.5561C39.2136 39.7333 39.7972 41.412 39.8404 41.6713L39.9269 41.8874C40.008 42.058 40.1454 42.1954 40.3159 42.2765C40.4467 42.3459 40.556 42.4497 40.6322 42.5766C40.7083 42.7036 40.7484 42.8489 40.7482 42.997C40.7482 43.4148 40.4528 43.6237 39.9269 43.7174L39.9413 43.6454ZM31.8434 33.0403L29.9846 37.4639H33.5869L33.1186 36.2967L31.8434 33.0403Z" fill="white"/>
</svg>
