<svg width="415" height="334" viewBox="0 0 415 334" fill="none" xmlns="http://www.w3.org/2000/svg">
<g clip-path="url(#clip0_368_5643)">
<path d="M116.819 222.099C142.823 222.099 163.902 201.051 163.902 175.086C163.902 149.122 142.823 128.073 116.819 128.073C90.8161 128.073 69.7363 149.122 69.7363 175.086C69.7363 201.051 90.8161 222.099 116.819 222.099Z" fill="#3A85D9"/>
<path d="M104.098 243.737L115.68 250.904V202.463L102.698 194.431C101.625 193.767 100.841 192.724 100.501 191.51C101.741 191.274 103.025 191.511 104.098 192.175L115.68 199.341V180.557C115.68 176.923 116.126 173.303 117.009 169.778C117.892 173.303 118.338 176.923 118.338 180.557V211.216L135.424 200.644C136.789 199.8 138.367 199.365 139.972 199.391C139.281 200.838 138.189 202.056 136.824 202.9L118.338 214.338V328.896H115.68V254.026L102.698 245.993C101.625 245.329 100.841 244.287 100.501 243.073C101.741 242.836 103.025 243.073 104.098 243.737Z" fill="#CCCCCC"/>
<path d="M47.083 226.091C73.0862 226.091 94.166 205.042 94.166 179.078C94.166 153.113 73.0862 132.065 47.083 132.065C21.0798 132.065 0 153.113 0 179.078C0 205.042 21.0798 226.091 47.083 226.091Z" fill="#3A85D9"/>
<path d="M59.8044 247.729L48.2227 254.895V206.455L61.2044 198.423C62.2777 197.758 63.0619 196.716 63.4018 195.502C62.1616 195.265 60.8777 195.503 59.8044 196.167L48.2226 203.333V184.549C48.2226 180.915 47.7763 177.295 46.8936 173.77C46.011 177.295 45.5647 180.915 45.5647 184.549V215.208L28.4784 204.635C27.1141 203.791 25.5355 203.356 23.9307 203.383C24.6214 204.829 25.7141 206.047 27.0784 206.891L45.5648 218.33V329.149H48.2227V258.018L61.2044 249.985C62.2777 249.321 63.0619 248.279 63.4018 247.064C62.1616 246.828 60.8777 247.065 59.8044 247.729Z" fill="#CCCCCC"/>
<path d="M81.2847 161.889C126.056 161.889 162.35 125.649 162.35 80.9445C162.35 36.2401 126.056 0 81.2847 0C36.5138 0 0.219727 36.2401 0.219727 80.9445C0.219727 125.649 36.5138 161.889 81.2847 161.889Z" fill="#3A85D9"/>
<path d="M103.187 199.145L83.2466 211.483V128.081L105.598 114.251C107.446 113.108 108.796 111.313 109.381 109.222L109.381 109.222H109.381C107.246 108.815 105.035 109.224 103.187 110.367L83.2466 122.705V90.3645C83.2466 84.108 82.4781 77.8751 80.9584 71.8054C79.4387 77.8751 78.6703 84.108 78.6703 90.3645V143.151L49.2519 124.948C46.9029 123.495 44.185 122.746 41.4219 122.791C42.6112 125.282 44.4924 127.379 46.8415 128.832L78.6703 148.526V329.326H83.2466V216.859L105.598 203.029C107.446 201.886 108.796 200.091 109.381 198L109.381 198H109.381C107.246 197.593 105.035 198.001 103.187 199.145Z" fill="#CCCCCC"/>
<path d="M415 328.896H32.3311V329.863H415V328.896Z" fill="#3F3D56"/>
<path d="M316.447 146.036L297.455 156.985L308.42 175.95L327.413 165.001L316.447 146.036Z" fill="#559FF0"/>
<path d="M316.689 179.902L305.239 160.1L325.071 148.667L336.521 168.47L316.689 179.902ZM306.563 160.454L317.044 178.581L335.197 168.116L324.716 149.989L306.563 160.454Z" fill="#2F2E41"/>
<path d="M298.922 233.114C304.005 233.114 308.126 228.999 308.126 223.924C308.126 218.849 304.005 214.734 298.922 214.734C293.839 214.734 289.719 218.849 289.719 223.924C289.719 228.999 293.839 233.114 298.922 233.114Z" fill="#D0CDE1"/>
<path d="M305.703 233.598C303.787 233.598 301.914 233.03 300.321 231.967C298.728 230.904 297.486 229.394 296.753 227.626C296.02 225.858 295.828 223.913 296.202 222.037C296.576 220.161 297.498 218.437 298.853 217.084C300.208 215.731 301.934 214.81 303.813 214.437C305.693 214.063 307.641 214.255 309.411 214.987C311.181 215.719 312.694 216.959 313.759 218.55C314.823 220.141 315.391 222.011 315.391 223.924C315.391 226.49 314.371 228.95 312.554 230.764C310.737 232.578 308.273 233.598 305.703 233.598ZM305.703 215.218C303.979 215.218 302.293 215.729 300.859 216.685C299.426 217.642 298.308 219.002 297.648 220.592C296.988 222.183 296.816 223.934 297.152 225.623C297.488 227.311 298.319 228.863 299.538 230.08C300.758 231.298 302.311 232.127 304.002 232.463C305.694 232.799 307.447 232.626 309.04 231.968C310.633 231.309 311.995 230.193 312.953 228.761C313.911 227.329 314.422 225.646 314.422 223.924C314.422 221.615 313.504 219.401 311.869 217.768C310.234 216.135 308.016 215.218 305.703 215.218Z" fill="#2F2E41"/>
<path d="M356.982 331.096H267.854C266.762 331.095 265.716 330.661 264.944 329.89C264.172 329.12 263.738 328.075 263.736 326.985V244.277C263.738 243.187 264.172 242.142 264.944 241.372C265.716 240.601 266.762 240.167 267.854 240.166H356.982C358.073 240.167 359.12 240.601 359.892 241.372C360.663 242.142 361.098 243.187 361.099 244.277V326.985C361.098 328.075 360.663 329.12 359.892 329.89C359.12 330.661 358.073 331.095 356.982 331.096Z" fill="#FADB61"/>
<path d="M318.714 334H306.12C305.029 333.999 303.982 333.565 303.21 332.795C302.438 332.024 302.004 330.979 302.003 329.889V241.82C302.004 240.73 302.438 239.685 303.21 238.915C303.982 238.144 305.029 237.71 306.12 237.709H318.714C319.806 237.71 320.853 238.144 321.624 238.915C322.396 239.685 322.83 240.73 322.832 241.82V329.889C322.83 330.979 322.396 332.024 321.624 332.795C320.853 333.565 319.806 333.999 318.714 334Z" fill="#3F3D56"/>
<path d="M380.662 231.979C380.141 240.511 368.598 246.751 368.598 246.751C368.598 246.751 357.9 239.158 358.421 230.625C358.941 222.093 370.484 215.853 370.484 215.853C370.484 215.853 381.182 223.447 380.662 231.979Z" fill="#3F3D56"/>
<path d="M381.184 258.6C372.638 258.106 366.353 246.601 366.353 246.601C366.353 246.601 373.924 235.895 382.47 236.388C391.017 236.881 397.302 248.387 397.302 248.387C397.302 248.387 389.731 259.093 381.184 258.6Z" fill="#3F3D56"/>
<path opacity="0.1" d="M360.857 250.285V281.859L329.405 240.408H353.363L360.857 250.285Z" fill="black"/>
<path d="M387.557 304.332C386.92 304.334 386.292 304.188 385.722 303.905C385.152 303.623 384.655 303.212 384.271 302.706L318.745 216.351C318.418 215.92 318.18 215.43 318.043 214.908C317.906 214.385 317.874 213.841 317.948 213.306C318.022 212.772 318.2 212.257 318.473 211.791C318.747 211.325 319.109 210.917 319.54 210.591L329.192 203.289C329.623 202.963 330.114 202.725 330.637 202.588C331.161 202.451 331.706 202.419 332.241 202.493C332.777 202.567 333.293 202.745 333.759 203.018C334.226 203.291 334.634 203.653 334.96 204.083L400.486 290.438C400.813 290.868 401.051 291.358 401.188 291.881C401.325 292.403 401.357 292.947 401.283 293.482C401.209 294.017 401.031 294.532 400.757 294.998C400.484 295.464 400.122 295.871 399.691 296.197L390.039 303.5C389.325 304.041 388.453 304.333 387.557 304.332Z" fill="#FADB61"/>
<path d="M361.329 237.231L344.728 249.791L357.306 266.368L373.908 253.808L361.329 237.231Z" fill="#3F3D56"/>
<path d="M275.927 174.06L270.251 195.212L291.434 200.88L297.11 179.728L275.927 174.06Z" fill="#D0CDE1"/>
<path d="M282.448 204.042L260.329 198.124L266.256 176.037L288.375 181.955L282.448 204.042ZM261.515 197.44L281.763 202.857L287.188 182.639L266.941 177.222L261.515 197.44Z" fill="#2F2E41"/>
<path d="M189.276 255.378C189.858 254.821 190.31 254.143 190.602 253.393C190.893 252.643 191.017 251.838 190.963 251.035C190.909 250.232 190.68 249.45 190.291 248.745C189.902 248.04 189.362 247.429 188.711 246.955L179.816 175.357L168.323 178.769L180.731 248.446C180.005 249.591 179.725 250.962 179.945 252.299C180.164 253.637 180.867 254.847 181.92 255.702C182.973 256.556 184.304 256.995 185.659 256.935C187.015 256.875 188.302 256.321 189.276 255.378Z" fill="#FFB8B8"/>
<path d="M199.929 323.812H206.651L209.85 297.924H199.929V323.812Z" fill="#FFB8B8"/>
<path d="M219.614 330.045H198.488V321.895H212.199C214.165 321.895 216.052 322.675 217.442 324.063C218.833 325.452 219.614 327.335 219.614 329.299V330.045Z" fill="#2F2E41"/>
<path d="M153.445 313.358L159.746 315.698L171.783 292.547L162.485 289.093L153.445 313.358Z" fill="#FFB8B8"/>
<path d="M169.72 326.052L149.919 318.698L152.765 311.059L165.615 315.832C167.458 316.517 168.954 317.904 169.772 319.69C170.591 321.476 170.666 323.513 169.98 325.353L169.72 326.052L169.72 326.052Z" fill="#2F2E41"/>
<path d="M187.87 156.771C194.889 156.771 200.58 151.089 200.58 144.08C200.58 137.071 194.889 131.389 187.87 131.389C180.851 131.389 175.16 137.071 175.16 144.08C175.16 151.089 180.851 156.771 187.87 156.771Z" fill="#FFB8B8"/>
<path d="M167.991 176.651C167.593 164.961 179.897 156.852 190.248 162.325C191.567 163.023 205.186 174.575 205.699 181.75C206.212 188.925 207.239 200.711 207.239 200.711L221.609 307.816L190.816 306.279L194.534 275.035L174.519 306.808L150.271 299.105L180.038 213.523C180.038 213.523 168.594 194.366 167.991 176.651Z" fill="#2F2E41"/>
<path d="M168.233 180.72L170.21 206.388C170.231 206.656 170.352 206.906 170.549 207.089C170.747 207.272 171.006 207.373 171.275 207.373H179.976C180.152 207.373 180.325 207.33 180.48 207.247C180.635 207.164 180.767 207.044 180.865 206.898C180.962 206.752 181.022 206.585 181.04 206.41C181.057 206.235 181.03 206.059 180.963 205.897L170.285 180.229C170.187 179.995 170.009 179.803 169.783 179.687C169.556 179.572 169.296 179.542 169.049 179.601C168.802 179.66 168.584 179.805 168.434 180.01C168.285 180.215 168.213 180.467 168.233 180.72Z" fill="#2F2E41"/>
<path d="M212.913 250.93C213.426 250.309 213.796 249.583 213.998 248.804C214.199 248.025 214.227 247.211 214.08 246.42C213.932 245.629 213.613 244.879 213.144 244.225C212.675 243.57 212.068 243.026 211.366 242.631L194.14 172.565L183.126 177.296L203.615 245.045C203.028 246.267 202.911 247.661 203.286 248.963C203.66 250.266 204.5 251.386 205.646 252.111C206.792 252.837 208.165 253.117 209.504 252.9C210.844 252.682 212.057 251.981 212.913 250.93Z" fill="#FFB8B8"/>
<path d="M184.656 166.376C184.656 166.376 181.064 173.551 184.656 186.362C188.249 199.174 190.815 209.936 190.815 209.936C190.815 209.936 199.027 204.811 202.619 206.349C206.212 207.886 196.936 172.196 196.936 172.196C196.936 172.196 191.328 160.227 184.656 166.376Z" fill="#2F2E41"/>
<path d="M190.852 146.06C191.024 143.427 194.351 143.336 196.994 143.312C199.636 143.287 202.796 143.381 204.291 141.205C205.279 139.767 205.091 137.771 204.274 136.229C203.458 134.687 202.115 133.502 200.794 132.361C197.383 129.416 193.868 126.494 189.773 124.609C185.678 122.724 180.879 121.963 176.632 123.476C171.415 125.335 164.363 134.903 163.754 140.4C163.145 145.898 165.345 151.502 169.054 155.61C172.763 159.718 181.252 158.06 186.594 159.522C183.347 154.932 185.487 146.592 190.69 144.449L190.852 146.06Z" fill="#2F2E41"/>
</g>
<defs>
<clipPath id="clip0_368_5643">
<rect width="415" height="334" fill="white"/>
</clipPath>
</defs>
</svg>
