<svg width="35" height="35" viewBox="0 0 35 35" fill="none" xmlns="http://www.w3.org/2000/svg">
<path d="M33.4399 17.4256L17.5174 1.50314C16.4161 0.401871 14.856 -0.148763 13.3418 0.0347818L5.49523 0.768959C3.01738 1.04428 1.04428 2.97149 0.814846 5.44934L0.0347817 13.25C-0.148763 14.8101 0.401871 16.3244 1.50314 17.4256L17.5174 33.3481C18.481 34.3117 19.8117 34.8623 21.2342 34.8623C22.6566 34.8623 23.9414 34.3117 24.9509 33.3481L33.4858 24.7674C34.4494 23.8038 35 22.4731 35 21.0506C34.9541 19.7199 34.4035 18.3892 33.4399 17.4256ZM32.2927 21.1424C32.2927 21.8307 32.0174 22.4731 31.5585 22.932L23.0237 31.4668C22.5649 31.9256 21.9225 32.2468 21.2342 32.2468C20.5459 32.2468 19.9035 31.9715 19.4446 31.4668L3.47624 15.5443C3.01738 15.0854 2.74206 14.443 2.69618 13.7547C2.69618 13.663 2.69618 13.5712 2.69618 13.4794L3.47624 5.67877C3.6139 4.48573 4.53162 3.52213 5.77055 3.38447L13.5712 2.6044C13.663 2.6044 13.7547 2.6044 13.8465 2.6044C14.5348 2.6044 15.1772 2.87972 15.6361 3.33858L31.6044 19.2611C32.0174 19.8117 32.2927 20.4541 32.2927 21.1424Z" fill="white"/>
<path d="M11.5994 7.00977C9.12154 7.00977 7.14844 9.02876 7.14844 11.4148C7.14844 12.6079 7.6073 13.7091 8.43325 14.581C9.30509 15.4528 10.4064 15.9117 11.5994 15.9117C12.7924 15.9117 13.8937 15.4528 14.7655 14.6269C15.6374 13.755 16.0962 12.6538 16.0962 11.4607C16.0962 10.2677 15.6374 9.12053 14.7655 8.29458C13.8937 7.46863 12.7924 7.05565 11.5994 7.00977ZM13.3431 11.4607C13.3431 11.9196 13.1595 12.3784 12.8383 12.7455C12.5171 13.0667 12.0583 13.2503 11.5535 13.2503C10.5899 13.2503 9.76395 12.4243 9.76395 11.4607C9.76395 11.0019 9.94749 10.543 10.2687 10.1759C10.5899 9.85471 11.0946 9.67116 11.5076 9.67116C11.9665 9.67116 12.3795 9.85471 12.7924 10.1759C13.1595 10.5889 13.3431 11.0019 13.3431 11.4607Z" fill="white"/>
</svg>
