<svg width="23" height="35" viewBox="0 0 23 35" fill="none" xmlns="http://www.w3.org/2000/svg">
<path d="M20.1048 17.8208C19.9415 18.638 19.4807 19.3655 18.8117 19.8624C18.6577 19.975 18.4913 20.0695 18.3159 20.1444C19.3388 21.3912 19.8957 22.9553 19.8909 24.568V32.1416H3.48946V24.568C3.49147 22.9581 4.04377 21.3973 5.05474 20.1444C4.88315 20.0679 4.72019 19.9734 4.56863 19.8624C3.88963 19.3706 3.42648 18.6358 3.27557 17.811C1.56589 19.6632 0.624058 22.096 0.640846 24.6166V33.6194C0.650978 33.9891 0.804987 34.3402 1.07009 34.598C1.3352 34.8559 1.69047 35.0001 2.06029 34.9999H21.3103C21.4975 34.9999 21.6829 34.9629 21.8558 34.891C22.0286 34.819 22.1855 34.7136 22.3175 34.5808C22.4494 34.4479 22.5537 34.2903 22.6245 34.117C22.6953 33.9436 22.731 33.758 22.7298 33.5708V24.568C22.7364 22.0685 21.7988 19.6586 20.1048 17.8208Z" fill="white"/>
<path d="M5.26823 10.9863L6.14324 11.8515L5.85157 13.3488L5.39462 16.0029L5.22934 16.9752C5.19168 17.2038 5.21807 17.4383 5.30559 17.6528C5.39311 17.8673 5.53835 18.0534 5.72518 18.1904C5.91245 18.3253 6.13378 18.405 6.36406 18.4205C6.59433 18.4359 6.82433 18.3866 7.02796 18.2779L7.40712 18.0835L7.84463 17.8502L11.6849 15.8765L15.5738 17.9085L15.8849 18.0738L16.3419 18.3071C16.5165 18.4064 16.7146 18.4567 16.9155 18.4529C17.0957 18.4528 17.2736 18.4133 17.4369 18.3371C17.6002 18.2608 17.7448 18.1498 17.8606 18.0118C17.9764 17.8737 18.0606 17.712 18.1073 17.538C18.154 17.3639 18.162 17.1818 18.1307 17.0043L17.9655 16.0321L17.5182 13.2904L17.2752 11.8515L18.1016 11.0349L21.0182 8.19598C21.1883 8.03658 21.3093 7.832 21.3671 7.60623C21.4249 7.38047 21.4171 7.1429 21.3446 6.9214C21.2722 6.69991 21.138 6.50368 20.9579 6.35575C20.7779 6.20783 20.5593 6.11434 20.328 6.08626L15.4669 5.36681H15.1655L15.0585 5.1432L12.803 0.641809C12.6964 0.440002 12.5348 0.272573 12.3369 0.158985C12.139 0.0453969 11.9129 -0.009685 11.6849 0.00014208C11.4575 -0.0062723 11.2328 0.0502535 11.0355 0.163482C10.8382 0.276711 10.676 0.442242 10.5668 0.641809L8.38907 5.07515L8.26268 5.32792H7.90296L3.04184 6.03765C2.81916 6.07565 2.61102 6.17354 2.43975 6.32084C2.26847 6.46814 2.14052 6.65927 2.06962 6.87376C1.99667 7.09461 1.98811 7.33166 2.04492 7.5572C2.10174 7.78273 2.22159 7.98744 2.39045 8.14737L5.26823 10.9863ZM9.26407 7.69043C9.46869 7.66285 9.66372 7.58667 9.83287 7.46827C10.002 7.34987 10.1403 7.19269 10.2363 7.00987L11.6363 4.16126L11.6849 3.97653L11.7724 4.17098L13.1821 7.00987C13.2761 7.19423 13.4139 7.35269 13.5834 7.47135C13.7529 7.59001 13.949 7.66524 14.1544 7.69043L17.4988 8.17654L15.2627 10.364L15.078 10.5293C14.9206 10.6696 14.8015 10.8476 14.7318 11.0466C14.662 11.2456 14.644 11.459 14.6794 11.6668L14.796 12.3279L15.253 14.9918L13.1335 13.8738L12.2585 13.4168C12.0817 13.3231 11.885 13.2731 11.6849 13.271C11.485 13.2742 11.2885 13.3242 11.1113 13.4168L10.2168 13.8835L8.11685 14.9918L8.57379 12.3863L8.70018 11.6668C8.72989 11.4675 8.7119 11.264 8.64768 11.0731C8.58345 10.8821 8.47483 10.709 8.33074 10.5682L8.10713 10.3543L5.91962 8.21543L9.26407 7.69043Z" fill="white"/>
</svg>
