<svg width="29" height="35" viewBox="0 0 29 35" fill="none" xmlns="http://www.w3.org/2000/svg">
<path d="M14.7579 -0.000488281C7.15468 -0.000488281 0.964844 6.19135 0.964844 13.794C0.964844 19.3318 4.30366 24.4975 7.52816 28.3381C10.7527 32.1785 13.9812 34.7294 13.9812 34.7294C14.2022 34.9046 14.4759 34.9999 14.7579 34.9999C15.0398 34.9999 15.3135 34.9046 15.5345 34.7294C15.5345 34.7294 18.763 32.1785 21.9875 28.3381C25.212 24.4975 28.5509 19.3318 28.5509 13.794C28.5509 6.19135 22.361 -0.000488281 14.7579 -0.000488281ZM14.7579 2.50069C21.0099 2.50069 26.052 7.54238 26.052 13.794C26.052 18.2902 23.119 23.1016 20.0717 26.731C17.6459 29.6203 15.6452 31.3505 14.7579 32.0935C13.8705 31.3505 11.8699 29.6203 9.44399 26.731C6.39672 23.1016 3.46375 18.2902 3.46375 13.794C3.46375 7.54238 8.5058 2.50069 14.7579 2.50069Z" fill="white"/>
<path d="M14.7591 7.52539C11.3125 7.52539 8.49219 10.3479 8.49219 13.7943C8.49219 17.2406 11.3125 20.0607 14.7591 20.0607C18.2057 20.0607 21.0259 17.2406 21.0259 13.7943C21.0259 10.3479 18.2057 7.52539 14.7591 7.52539ZM14.7591 10.0266C16.8545 10.0266 18.527 11.6989 18.527 13.7943C18.527 15.8896 16.8545 17.5595 14.7591 17.5595C12.6636 17.5595 10.9911 15.8896 10.9911 13.7943C10.9911 11.6989 12.6636 10.0266 14.7591 10.0266Z" fill="white"/>
</svg>
